<?xml version="1.0" encoding="utf-8" ?>
<svg baseProfile="full" height="1600px" version="1.1" viewBox="0 0 2400 1600" width="2400px" xmlns="http://www.w3.org/2000/svg" xmlns:ev="http://www.w3.org/2001/xml-events" xmlns:xlink="http://www.w3.org/1999/xlink"><defs><style type="text/css"><![CDATA[
    .header-text { 
        font-family: 'Inter', 'Arial', sans-serif; 
        font-size: 28px; 
        font-weight: bold; 
        fill: #FFFFFF;
    }
    .title-text { 
        font-family: 'Inter', 'Arial', sans-serif; 
        font-size: 48px; 
        font-weight: bold; 
        fill: #1E293B;
    }
    .subtitle-text { 
        font-family: 'Inter', 'Arial', sans-serif; 
        font-size: 28px; 
        font-style: italic; 
        fill: #F97316;
    }
    .component-title { 
        font-family: 'Inter', 'Arial', sans-serif; 
        font-size: 22px; 
        font-weight: bold; 
        fill: #1E293B;
    }
    .component-detail { 
        font-family: 'Inter', 'Arial', sans-serif; 
        font-size: 16px; 
        fill: #1E293B;
    }
    .section-title { 
        font-family: 'Inter', 'Arial', sans-serif; 
        font-size: 24px; 
        font-weight: bold; 
        fill: #F97316;
    }
    .section-text { 
        font-family: 'Inter', 'Arial', sans-serif; 
        font-size: 18px; 
        fill: #1E293B;
    }
]]></style><marker id="id1" markerHeight="10" markerWidth="10" orient="auto" refX="10" refY="5"><polygon fill="#F97316" points="0,0 10,5 0,10" /></marker><marker id="id2" markerHeight="10" markerWidth="10" orient="auto" refX="10" refY="5"><polygon fill="#F97316" points="0,0 10,5 0,10" /></marker><marker id="id3" markerHeight="10" markerWidth="10" orient="auto" refX="10" refY="5"><polygon fill="#F97316" points="0,0 10,5 0,10" /></marker><marker id="id4" markerHeight="10" markerWidth="10" orient="auto" refX="10" refY="5"><polygon fill="#F97316" points="0,0 10,5 0,10" /></marker><marker id="id5" markerHeight="10" markerWidth="10" orient="auto" refX="10" refY="5"><polygon fill="#F97316" points="0,0 10,5 0,10" /></marker></defs><text class="title-text" text-anchor="middle" x="1200" y="80">ARKHITEKTON WIKI KNOWLEDGE CORE</text><text class="subtitle-text" text-anchor="middle" x="1200" y="125">Event-Driven Microservices Architecture</text><rect fill="#F97316" height="50" rx="10" ry="10" stroke="none" width="2300" x="50" y="180" /><text class="header-text" text-anchor="middle" x="1200" y="215">USER EXPERIENCE LAYER</text><rect fill="#FFFFFF" height="150" rx="8" ry="8" stroke="#E2E8F0" stroke-width="2" width="545.0" x="65.0" y="240" /><text class="component-title" text-anchor="middle" x="337.5" y="270">Wiki Editor</text><text class="component-detail" text-anchor="middle" x="337.5" y="318">React 18 • TipTap</text><text class="component-detail" text-anchor="middle" x="337.5" y="342">Markdown Shortcuts</text><text class="component-detail" text-anchor="middle" x="337.5" y="366">Slash Commands</text><text class="component-detail" text-anchor="middle" x="337.5" y="390">Block-based UI</text><rect fill="#FFFFFF" height="150" rx="8" ry="8" stroke="#E2E8F0" stroke-width="2" width="545.0" x="640.0" y="240" /><text class="component-title" text-anchor="middle" x="912.5" y="270">Canvas Workspace</text><text class="component-detail" text-anchor="middle" x="912.5" y="318">Konva.js • Architecture Shapes</text><text class="component-detail" text-anchor="middle" x="912.5" y="342">Real-time Collaboration</text><text class="component-detail" text-anchor="middle" x="912.5" y="366">Yjs Integration</text><text class="component-detail" text-anchor="middle" x="912.5" y="390">Semantic @mentions</text><rect fill="#FFFFFF" height="150" rx="8" ry="8" stroke="#E2E8F0" stroke-width="2" width="545.0" x="1215.0" y="240" /><text class="component-title" text-anchor="middle" x="1487.5" y="270">Search Interface</text><text class="component-detail" text-anchor="middle" x="1487.5" y="318">Full-text Search</text><text class="component-detail" text-anchor="middle" x="1487.5" y="342">Semantic Search</text><text class="component-detail" text-anchor="middle" x="1487.5" y="366">Advanced Filters</text><text class="component-detail" text-anchor="middle" x="1487.5" y="390">Entity Resolution</text><rect fill="#FFFFFF" height="150" rx="8" ry="8" stroke="#E2E8F0" stroke-width="2" width="545.0" x="1790.0" y="240" /><text class="component-title" text-anchor="middle" x="2062.5" y="270">Navigation</text><text class="component-detail" text-anchor="middle" x="2062.5" y="318">Tree View</text><text class="component-detail" text-anchor="middle" x="2062.5" y="342">Breadcrumbs</text><text class="component-detail" text-anchor="middle" x="2062.5" y="366">Favorites &amp; Recent</text><text class="component-detail" text-anchor="middle" x="2062.5" y="390">Quick Access (Cmd+K)</text><line marker-end="url(#id1)" stroke="#F97316" stroke-width="4" x1="1200" x2="1200" y1="410" y2="440" /><rect fill="#F97316" height="50" rx="10" ry="10" stroke="none" width="2300" x="50" y="430" /><text class="header-text" text-anchor="middle" x="1200" y="465">AI AGENT ORCHESTRATION LAYER</text><rect fill="#FFFFFF" height="150" rx="8" ry="8" stroke="#E2E8F0" stroke-width="2" width="545.0" x="65.0" y="490" /><text class="component-title" text-anchor="middle" x="337.5" y="520">Documentation</text><text class="component-title" text-anchor="middle" x="337.5" y="548">Assistant</text><text class="component-detail" text-anchor="middle" x="337.5" y="596">Writing Help</text><text class="component-detail" text-anchor="middle" x="337.5" y="620">Completions</text><text class="component-detail" text-anchor="middle" x="337.5" y="644">Summaries</text><text class="component-detail" text-anchor="middle" x="337.5" y="668">Content Quality</text><rect fill="#FFFFFF" height="150" rx="8" ry="8" stroke="#E2E8F0" stroke-width="2" width="545.0" x="640.0" y="490" /><text class="component-title" text-anchor="middle" x="912.5" y="520">Search</text><text class="component-title" text-anchor="middle" x="912.5" y="548">Optimization</text><text class="component-detail" text-anchor="middle" x="912.5" y="596">Query Enhancement</text><text class="component-detail" text-anchor="middle" x="912.5" y="620">Result Ranking</text><text class="component-detail" text-anchor="middle" x="912.5" y="644">Relevance Scoring</text><text class="component-detail" text-anchor="middle" x="912.5" y="668">Fuzzy Matching</text><rect fill="#FFFFFF" height="150" rx="8" ry="8" stroke="#E2E8F0" stroke-width="2" width="545.0" x="1215.0" y="490" /><text class="component-title" text-anchor="middle" x="1487.5" y="520">Content</text><text class="component-title" text-anchor="middle" x="1487.5" y="548">Quality Agent</text><text class="component-detail" text-anchor="middle" x="1487.5" y="596">Staleness Detection</text><text class="component-detail" text-anchor="middle" x="1487.5" y="620">Broken Link Checks</text><text class="component-detail" text-anchor="middle" x="1487.5" y="644">Missing @mentions</text><text class="component-detail" text-anchor="middle" x="1487.5" y="668">Quality Metrics</text><rect fill="#FFFFFF" height="150" rx="8" ry="8" stroke="#E2E8F0" stroke-width="2" width="545.0" x="1790.0" y="490" /><text class="component-title" text-anchor="middle" x="2062.5" y="520">Semantic</text><text class="component-title" text-anchor="middle" x="2062.5" y="548">Linking Agent</text><text class="component-detail" text-anchor="middle" x="2062.5" y="596">Auto-suggest @mentions</text><text class="component-detail" text-anchor="middle" x="2062.5" y="620">Backlink Discovery</text><text class="component-detail" text-anchor="middle" x="2062.5" y="644">Entity Resolution</text><text class="component-detail" text-anchor="middle" x="2062.5" y="668">Status Propagation</text><line marker-end="url(#id2)" stroke="#F97316" stroke-width="4" x1="1200" x2="1200" y1="660" y2="690" /><rect fill="#F97316" height="50" rx="10" ry="10" stroke="none" width="2300" x="50" y="680" /><text class="header-text" text-anchor="middle" x="1200" y="715">AI/ML INTELLIGENCE LAYER</text><rect fill="#FFFFFF" height="150" rx="8" ry="8" stroke="#E2E8F0" stroke-width="2" width="545.0" x="65.0" y="740" /><text class="component-title" text-anchor="middle" x="337.5" y="770">Predictive</text><text class="component-title" text-anchor="middle" x="337.5" y="798">Models</text><text class="component-detail" text-anchor="middle" x="337.5" y="846">Next Word Prediction</text><text class="component-detail" text-anchor="middle" x="337.5" y="870">Auto-complete</text><text class="component-detail" text-anchor="middle" x="337.5" y="894">Smart Suggestions</text><text class="component-detail" text-anchor="middle" x="337.5" y="918">Context Awareness</text><rect fill="#FFFFFF" height="150" rx="8" ry="8" stroke="#E2E8F0" stroke-width="2" width="545.0" x="640.0" y="740" /><text class="component-title" text-anchor="middle" x="912.5" y="770">Prescriptive</text><text class="component-title" text-anchor="middle" x="912.5" y="798">Analytics</text><text class="component-detail" text-anchor="middle" x="912.5" y="846">Content Recommendations</text><text class="component-detail" text-anchor="middle" x="912.5" y="870">Quality Scoring</text><text class="component-detail" text-anchor="middle" x="912.5" y="894">Optimization Tips</text><text class="component-detail" text-anchor="middle" x="912.5" y="918">Best Practices</text><rect fill="#FFFFFF" height="150" rx="8" ry="8" stroke="#E2E8F0" stroke-width="2" width="545.0" x="1215.0" y="740" /><text class="component-title" text-anchor="middle" x="1487.5" y="770">Generative AI</text><text class="component-detail" text-anchor="middle" x="1487.5" y="818">Claude API • DeepSeek</text><text class="component-detail" text-anchor="middle" x="1487.5" y="842">Qwen • Yi 1.5</text><text class="component-detail" text-anchor="middle" x="1487.5" y="866">Documentation Gen</text><text class="component-detail" text-anchor="middle" x="1487.5" y="890">Summarization</text><rect fill="#FFFFFF" height="150" rx="8" ry="8" stroke="#E2E8F0" stroke-width="2" width="545.0" x="1790.0" y="740" /><text class="component-title" text-anchor="middle" x="2062.5" y="770">Real-Time</text><text class="component-title" text-anchor="middle" x="2062.5" y="798">Scoring</text><text class="component-detail" text-anchor="middle" x="2062.5" y="846">Content Freshness</text><text class="component-detail" text-anchor="middle" x="2062.5" y="870">Link Health</text><text class="component-detail" text-anchor="middle" x="2062.5" y="894">Mention Accuracy</text><text class="component-detail" text-anchor="middle" x="2062.5" y="918">Quality Metrics</text><line marker-end="url(#id3)" stroke="#F97316" stroke-width="4" x1="1200" x2="1200" y1="910" y2="940" /><rect fill="#F97316" height="50" rx="10" ry="10" stroke="none" width="2300" x="50" y="930" /><text class="header-text" text-anchor="middle" x="1200" y="965">CORE WIKI MODULES LAYER</text><rect fill="#FFFFFF" height="150" rx="8" ry="8" stroke="#E2E8F0" stroke-width="2" width="545.0" x="65.0" y="990" /><text class="component-title" text-anchor="middle" x="337.5" y="1020">Page</text><text class="component-title" text-anchor="middle" x="337.5" y="1048">Management</text><text class="component-detail" text-anchor="middle" x="337.5" y="1096">CRUD Operations</text><text class="component-detail" text-anchor="middle" x="337.5" y="1120">Hierarchy &amp; Tree</text><text class="component-detail" text-anchor="middle" x="337.5" y="1144">Templates</text><text class="component-detail" text-anchor="middle" x="337.5" y="1168">Drag &amp; Drop</text><rect fill="#FFFFFF" height="150" rx="8" ry="8" stroke="#E2E8F0" stroke-width="2" width="545.0" x="640.0" y="990" /><text class="component-title" text-anchor="middle" x="912.5" y="1020">Semantic</text><text class="component-title" text-anchor="middle" x="912.5" y="1048">Mentions</text><text class="component-detail" text-anchor="middle" x="912.5" y="1096">@mention System</text><text class="component-detail" text-anchor="middle" x="912.5" y="1120">Entity Resolution</text><text class="component-detail" text-anchor="middle" x="912.5" y="1144">Live Status Updates</text><text class="component-detail" text-anchor="middle" x="912.5" y="1168">Backlinks</text><rect fill="#FFFFFF" height="150" rx="8" ry="8" stroke="#E2E8F0" stroke-width="2" width="545.0" x="1215.0" y="990" /><text class="component-title" text-anchor="middle" x="1487.5" y="1020">Canvas</text><text class="component-title" text-anchor="middle" x="1487.5" y="1048">Blocks</text><text class="component-detail" text-anchor="middle" x="1487.5" y="1096">Embedded Diagrams</text><text class="component-detail" text-anchor="middle" x="1487.5" y="1120">Architecture Shapes</text><text class="component-detail" text-anchor="middle" x="1487.5" y="1144">Semantic Integration</text><text class="component-detail" text-anchor="middle" x="1487.5" y="1168">Export (SVG/PNG)</text><rect fill="#FFFFFF" height="150" rx="8" ry="8" stroke="#E2E8F0" stroke-width="2" width="545.0" x="1790.0" y="990" /><text class="component-title" text-anchor="middle" x="2062.5" y="1020">Requirements</text><text class="component-title" text-anchor="middle" x="2062.5" y="1048">&amp; History</text><text class="component-detail" text-anchor="middle" x="2062.5" y="1096">Traceability Matrix</text><text class="component-detail" text-anchor="middle" x="2062.5" y="1120">Version Control</text><text class="component-detail" text-anchor="middle" x="2062.5" y="1144">Comments &amp; Collab</text><text class="component-detail" text-anchor="middle" x="2062.5" y="1168">Git-like Diff</text><line marker-end="url(#id4)" stroke="#F97316" stroke-width="4" x1="1200" x2="1200" y1="1160" y2="1190" /><rect fill="#F97316" height="50" rx="10" ry="10" stroke="none" width="2300" x="50" y="1180" /><text class="header-text" text-anchor="middle" x="1200" y="1215">UNIFIED DATA &amp; ANALYTICS PLATFORM</text><rect fill="#FFFFFF" height="150" rx="8" ry="8" stroke="#E2E8F0" stroke-width="2" width="545.0" x="65.0" y="1240" /><text class="component-title" text-anchor="middle" x="337.5" y="1270">PostgreSQL</text><text class="component-detail" text-anchor="middle" x="337.5" y="1318">Master Data Repository</text><text class="component-detail" text-anchor="middle" x="337.5" y="1342">JSONB Content Storage</text><text class="component-detail" text-anchor="middle" x="337.5" y="1366">Full-text Search (tsvector)</text><text class="component-detail" text-anchor="middle" x="337.5" y="1390">ACID Transactions</text><rect fill="#FFFFFF" height="150" rx="8" ry="8" stroke="#E2E8F0" stroke-width="2" width="545.0" x="640.0" y="1240" /><text class="component-title" text-anchor="middle" x="912.5" y="1270">pgvector</text><text class="component-detail" text-anchor="middle" x="912.5" y="1318">Vector Embeddings</text><text class="component-detail" text-anchor="middle" x="912.5" y="1342">Semantic Search</text><text class="component-detail" text-anchor="middle" x="912.5" y="1366">AI-powered Retrieval</text><text class="component-detail" text-anchor="middle" x="912.5" y="1390">1536-dim Vectors</text><rect fill="#FFFFFF" height="150" rx="8" ry="8" stroke="#E2E8F0" stroke-width="2" width="545.0" x="1215.0" y="1240" /><text class="component-title" text-anchor="middle" x="1487.5" y="1270">Redis</text><text class="component-detail" text-anchor="middle" x="1487.5" y="1318">Caching Layer</text><text class="component-detail" text-anchor="middle" x="1487.5" y="1342">Session Management</text><text class="component-detail" text-anchor="middle" x="1487.5" y="1366">Real-time State</text><text class="component-detail" text-anchor="middle" x="1487.5" y="1390">Pub/Sub Events</text><rect fill="#FFFFFF" height="150" rx="8" ry="8" stroke="#E2E8F0" stroke-width="2" width="545.0" x="1790.0" y="1240" /><text class="component-title" text-anchor="middle" x="2062.5" y="1270">Event Stream</text><text class="component-detail" text-anchor="middle" x="2062.5" y="1318">Kafka / Redis Streams</text><text class="component-detail" text-anchor="middle" x="2062.5" y="1342">Event Sourcing</text><text class="component-detail" text-anchor="middle" x="2062.5" y="1366">Status Propagation</text><text class="component-detail" text-anchor="middle" x="2062.5" y="1390">WebSocket Broadcast</text><line marker-end="url(#id5)" stroke="#F97316" stroke-width="4" x1="1200" x2="1200" y1="1410" y2="1440" /><rect fill="#F97316" height="50" rx="10" ry="10" stroke="none" width="2300" x="50" y="1430" /><text class="header-text" text-anchor="middle" x="1200" y="1465">DATA INTEGRATION &amp; INTEROPERABILITY</text><rect fill="#FFFFFF" height="150" rx="8" ry="8" stroke="#E2E8F0" stroke-width="2" width="545.0" x="65.0" y="1490" /><text class="component-title" text-anchor="middle" x="337.5" y="1520">Cross-Module</text><text class="component-title" text-anchor="middle" x="337.5" y="1548">Integrations</text><text class="component-detail" text-anchor="middle" x="337.5" y="1596">Design Studio API</text><text class="component-detail" text-anchor="middle" x="337.5" y="1620">Plan Module API</text><text class="component-detail" text-anchor="middle" x="337.5" y="1644">APM (Future)</text><text class="component-detail" text-anchor="middle" x="337.5" y="1668">Governance (Future)</text><rect fill="#FFFFFF" height="150" rx="8" ry="8" stroke="#E2E8F0" stroke-width="2" width="545.0" x="640.0" y="1490" /><text class="component-title" text-anchor="middle" x="912.5" y="1520">Wiki Public APIs</text><text class="component-detail" text-anchor="middle" x="912.5" y="1568">Backlinks API</text><text class="component-detail" text-anchor="middle" x="912.5" y="1592">Requirements API</text><text class="component-detail" text-anchor="middle" x="912.5" y="1616">Documentation API</text><text class="component-detail" text-anchor="middle" x="912.5" y="1640">Canvas Export API</text><rect fill="#FFFFFF" height="150" rx="8" ry="8" stroke="#E2E8F0" stroke-width="2" width="545.0" x="1215.0" y="1490" /><text class="component-title" text-anchor="middle" x="1487.5" y="1520">Universal</text><text class="component-title" text-anchor="middle" x="1487.5" y="1548">Services</text><text class="component-detail" text-anchor="middle" x="1487.5" y="1596">Entity Resolution</text><text class="component-detail" text-anchor="middle" x="1487.5" y="1620">Real-time Event Bus</text><text class="component-detail" text-anchor="middle" x="1487.5" y="1644">Auth &amp; RBAC</text><text class="component-detail" text-anchor="middle" x="1487.5" y="1668">Audit Logging</text><rect fill="#FFFFFF" height="150" rx="8" ry="8" stroke="#E2E8F0" stroke-width="2" width="545.0" x="1790.0" y="1490" /><text class="component-title" text-anchor="middle" x="2062.5" y="1520">Integration</text><text class="component-title" text-anchor="middle" x="2062.5" y="1548">Pattern</text><text class="component-detail" text-anchor="middle" x="2062.5" y="1596">REST API Standard</text><text class="component-detail" text-anchor="middle" x="2062.5" y="1620">Entity Schema</text><text class="component-detail" text-anchor="middle" x="2062.5" y="1644">WebSocket Events</text><text class="component-detail" text-anchor="middle" x="2062.5" y="1668">GraphQL Queries</text><rect fill="#F8FAFC" height="250" rx="10" ry="10" stroke="#F97316" stroke-width="3" width="1100" x="50" y="1690" /><text class="section-title" text-anchor="middle" x="600" y="1730">KEY TECHNOLOGIES</text><text class="section-text" x="70" y="1770">Frontend: React 18+, Next.js 14+, TipTap, Konva.js, TailwindCSS</text><text class="section-text" x="70" y="1798">Backend: Node.js, TypeScript, Express, GraphQL</text><text class="section-text" x="70" y="1826">Database: PostgreSQL 16+ (JSONB, tsvector, pgvector)</text><text class="section-text" x="70" y="1854">Caching: Redis, Bull Queue</text><text class="section-text" x="70" y="1882">Real-time: Yjs, WebSocket, Server-Sent Events</text><text class="section-text" x="70" y="1910">AI/ML: Claude API, DeepSeek R1, Qwen 3, Yi 1.5</text><text class="section-text" x="70" y="1938">Infrastructure: GCP (GKE, Cloud SQL, Cloud Storage)</text><text class="section-text" x="70" y="1966">Event Bus: Kafka / Redis Streams</text><rect fill="#F8FAFC" height="250" rx="10" ry="10" stroke="#F97316" stroke-width="3" width="1100" x="1250" y="1690" /><text class="section-title" text-anchor="middle" x="1800" y="1730">ARCHITECTURE PATTERNS</text><text class="section-text" x="1270" y="1770">✓ Event-Driven Microservices (Loose coupling, scalability)</text><text class="section-text" x="1270" y="1798">✓ Master Data Management (Single source of truth)</text><text class="section-text" x="1270" y="1826">✓ API-First Design (REST + GraphQL + WebSocket)</text><text class="section-text" x="1270" y="1854">✓ CQRS Pattern (Command/Query separation)</text><text class="section-text" x="1270" y="1882">✓ Entity Resolution (Cross-module semantic graph)</text><text class="section-text" x="1270" y="1910">✓ Real-Time Processing (&lt; 1 second latency)</text><text class="section-text" x="1270" y="1938">✓ PostgreSQL-Only (No MongoDB, JSONB flexibility)</text><text class="section-text" x="1270" y="1966">✓ Horizontal Scalability (Kubernetes-ready)</text><text style="font-family: Inter, Arial, sans-serif; font-size: 18px; font-style: italic; fill: #1E293B" text-anchor="middle" x="1200" y="1980">Built for 2025 | POD-Based Development | 22-25 Story Points per Sprint</text></svg>