<?xml version="1.0" encoding="UTF-8" standalone="no"?>
<svg viewBox="0 0 1400 1000" xmlns="http://www.w3.org/2000/svg">
  <defs>
    <marker id="arrow" viewBox="0 0 10 10" refX="9" refY="5" markerWidth="6" markerHeight="6" orient="auto">
      <path d="M 0 0 L 10 5 L 0 10 z" fill="#2d3748"/>
    </marker>
    <marker id="arrow-blue" viewBox="0 0 10 10" refX="9" refY="5" markerWidth="6" markerHeight="6" orient="auto">
      <path d="M 0 0 L 10 5 L 0 10 z" fill="#0066cc"/>
    </marker>
    <marker id="arrow-orange" viewBox="0 0 10 10" refX="9" refY="5" markerWidth="6" markerHeight="6" orient="auto">
      <path d="M 0 0 L 10 5 L 0 10 z" fill="#ff9800"/>
    </marker>
    <marker id="arrow-gray" viewBox="0 0 10 10" refX="9" refY="5" markerWidth="6" markerHeight="6" orient="auto">
      <path d="M 0 0 L 10 5 L 0 10 z" fill="#607d8b"/>
    </marker>
  </defs>

  <!-- Title -->
  <text x="700" y="30" font-family="Arial" font-size="24" font-weight="bold" text-anchor="middle" fill="#1a202c">Quality Center System Architecture</text>
  <text x="700" y="55" font-family="Arial" font-size="14" text-anchor="middle" fill="#4a5568">TDS-QC-001 | Module Integration and Data Flow</text>
  
  <!-- Platform Modules -->
  <rect x="150" y="100" width="1100" height="100" fill="#edf2f7" stroke="#4299e1" stroke-width="2" rx="8"/>
  <text x="180" y="130" font-family="Arial" font-size="14" font-weight="bold" fill="#2d3748">ARKHITEKTON PLATFORM MODULES</text>
  
  <rect x="180" y="145" width="150" height="40" fill="#fff" stroke="#0066cc" stroke-width="2" rx="4"/>
  <text x="255" y="170" font-family="Arial" font-size="12" font-weight="bold" fill="#0066cc" text-anchor="middle">Plan Module</text>
  
  <rect x="360" y="145" width="150" height="40" fill="#fff" stroke="#0066cc" stroke-width="2" rx="4"/>
  <text x="435" y="170" font-family="Arial" font-size="12" font-weight="bold" fill="#0066cc" text-anchor="middle">Wiki Module</text>
  
  <rect x="540" y="145" width="180" height="40" fill="#fff" stroke="#0066cc" stroke-width="2" rx="4"/>
  <text x="630" y="170" font-family="Arial" font-size="12" font-weight="bold" fill="#0066cc" text-anchor="middle">Design Studio</text>
  
  <rect x="750" y="145" width="150" height="40" fill="#fff" stroke="#0066cc" stroke-width="2" rx="4"/>
  <text x="825" y="170" font-family="Arial" font-size="12" font-weight="bold" fill="#0066cc" text-anchor="middle">Portfolio</text>
  
  <rect x="930" y="145" width="280" height="40" fill="#fff" stroke="#0066cc" stroke-width="2" rx="4"/>
  <text x="1070" y="170" font-family="Arial" font-size="12" font-weight="bold" fill="#0066cc" text-anchor="middle">External Integrations</text>
  
  <!-- Quality Center Main -->
  <rect x="300" y="250" width="800" height="100" fill="#fff4e6" stroke="#ff9800" stroke-width="3" rx="10"/>
  <text x="700" y="290" font-family="Arial" font-size="20" font-weight="bold" fill="#ff9800" text-anchor="middle">QUALITY CENTER</text>
  <text x="700" y="315" font-family="Arial" font-size="14" fill="#666" text-anchor="middle">Comprehensive Quality Management Platform</text>
  
  <!-- Arrows from Platform to QC -->
  <path d="M 255 185 L 450 250" stroke="#0066cc" stroke-width="2" fill="none" marker-end="url(#arrow-blue)"/>
  <path d="M 435 185 L 550 250" stroke="#0066cc" stroke-width="2" fill="none" marker-end="url(#arrow-blue)"/>
  <path d="M 630 185 L 650 250" stroke="#0066cc" stroke-width="2" fill="none" marker-end="url(#arrow-blue)"/>
  <path d="M 825 185 L 750 250" stroke="#0066cc" stroke-width="2" fill="none" marker-end="url(#arrow-blue)"/>
  <path d="M 1070 185 L 900 250" stroke="#0066cc" stroke-width="2" fill="none" marker-end="url(#arrow-blue)"/>
  
  <!-- Three Subsystems -->
  <rect x="150" y="400" width="300" height="200" fill="#ffe6e6" stroke="#d32f2f" stroke-width="2" rx="8"/>
  <text x="180" y="430" font-family="Arial" font-size="16" font-weight="bold" fill="#d32f2f">Defect Management</text>
  <text x="180" y="450" font-family="Arial" font-size="11" fill="#666">Implementation: 15%</text>
  <text x="170" y="475" font-family="Arial" font-size="12" fill="#333">Triage and Verification</text>
  <text x="170" y="495" font-family="Arial" font-size="12" fill="#333">Lifecycle Tracking</text>
  <text x="170" y="515" font-family="Arial" font-size="12" fill="#333">Analytics and Metrics</text>
  <text x="170" y="535" font-family="Arial" font-size="12" fill="#333">Component Linking</text>
  <text x="170" y="555" font-family="Arial" font-size="12" fill="#333">AI Intelligence</text>
  <text x="170" y="580" font-family="Arial" font-size="11" fill="#999">Phases 1-6</text>
  
  <rect x="500" y="400" width="300" height="200" fill="#e6ffe6" stroke="#388e3c" stroke-width="2" rx="8"/>
  <text x="530" y="430" font-family="Arial" font-size="16" font-weight="bold" fill="#388e3c">Test Planning</text>
  <text x="530" y="450" font-family="Arial" font-size="11" fill="#666">Implementation: 95%</text>
  <text x="520" y="475" font-family="Arial" font-size="12" fill="#333">Test Suites (Hierarchical)</text>
  <text x="520" y="495" font-family="Arial" font-size="12" fill="#333">Test Cases (Detailed)</text>
  <text x="520" y="515" font-family="Arial" font-size="12" fill="#333">Test Runs and Results</text>
  <text x="520" y="535" font-family="Arial" font-size="12" fill="#333">Coverage Dashboard</text>
  <text x="520" y="555" font-family="Arial" font-size="12" fill="#333">Auto-Defect Creation</text>
  <text x="520" y="580" font-family="Arial" font-size="11" fill="#388e3c">COMPLETE</text>
  
  <rect x="850" y="400" width="300" height="200" fill="#e6e6ff" stroke="#5e35b1" stroke-width="2" rx="8"/>
  <text x="880" y="430" font-family="Arial" font-size="16" font-weight="bold" fill="#5e35b1">Release Management</text>
  <text x="880" y="450" font-family="Arial" font-size="11" fill="#666">Implementation: 0%</text>
  <text x="870" y="475" font-family="Arial" font-size="12" fill="#333">Release Definition</text>
  <text x="870" y="495" font-family="Arial" font-size="12" fill="#333">Launch Checklists</text>
  <text x="870" y="515" font-family="Arial" font-size="12" fill="#333">Go/No-Go Board</text>
  <text x="870" y="535" font-family="Arial" font-size="12" fill="#333">Stakeholder Votes</text>
  <text x="870" y="555" font-family="Arial" font-size="12" fill="#333">Release Notes</text>
  <text x="870" y="580" font-family="Arial" font-size="11" fill="#999">Phase 4</text>
  
  <!-- Arrows from QC to Subsystems -->
  <path d="M 420 350 L 300 400" stroke="#ff9800" stroke-width="2" fill="none" marker-end="url(#arrow-orange)"/>
  <path d="M 700 350 L 650 400" stroke="#ff9800" stroke-width="2" fill="none" marker-end="url(#arrow-orange)"/>
  <path d="M 880 350 L 1000 400" stroke="#ff9800" stroke-width="2" fill="none" marker-end="url(#arrow-orange)"/>
  
  <!-- Data Layer -->
  <rect x="300" y="650" width="800" height="100" fill="#f0f0f0" stroke="#424242" stroke-width="3" rx="10"/>
  <text x="700" y="690" font-family="Arial" font-size="20" font-weight="bold" fill="#424242" text-anchor="middle">DATA LAYER</text>
  <text x="700" y="715" font-family="Arial" font-size="14" fill="#666" text-anchor="middle">PostgreSQL + Drizzle ORM</text>
  <text x="700" y="735" font-family="Arial" font-size="11" fill="#999" text-anchor="middle">defects | test_suites | test_cases | test_runs | releases | quality_gates</text>
  
  <!-- Arrows from Subsystems to Data -->
  <path d="M 300 600 L 450 650" stroke="#424242" stroke-width="2" fill="none" marker-end="url(#arrow)"/>
  <path d="M 650 600 L 650 650" stroke="#424242" stroke-width="2" fill="none" marker-end="url(#arrow)"/>
  <path d="M 1000 600 L 850 650" stroke="#424242" stroke-width="2" fill="none" marker-end="url(#arrow)"/>
  
  <!-- External Integrations -->
  <rect x="50" y="850" width="150" height="80" fill="#fff" stroke="#607d8b" stroke-width="2" rx="5"/>
  <text x="125" y="880" font-family="Arial" font-size="13" font-weight="bold" fill="#607d8b" text-anchor="middle">GitHub</text>
  <text x="125" y="900" font-family="Arial" font-size="11" fill="#666" text-anchor="middle">Commits PRs</text>
  
  <rect x="250" y="850" width="150" height="80" fill="#fff" stroke="#607d8b" stroke-width="2" rx="5"/>
  <text x="325" y="880" font-family="Arial" font-size="13" font-weight="bold" fill="#607d8b" text-anchor="middle">Jira</text>
  <text x="325" y="900" font-family="Arial" font-size="11" fill="#666" text-anchor="middle">Bi-directional</text>
  
  <rect x="450" y="850" width="150" height="80" fill="#fff" stroke="#607d8b" stroke-width="2" rx="5"/>
  <text x="525" y="880" font-family="Arial" font-size="13" font-weight="bold" fill="#607d8b" text-anchor="middle">AI Claude</text>
  <text x="525" y="900" font-family="Arial" font-size="11" fill="#666" text-anchor="middle">Intelligence</text>
  
  <rect x="650" y="850" width="150" height="80" fill="#fff" stroke="#607d8b" stroke-width="2" rx="5"/>
  <text x="725" y="880" font-family="Arial" font-size="13" font-weight="bold" fill="#607d8b" text-anchor="middle">CI/CD</text>
  <text x="725" y="900" font-family="Arial" font-size="11" fill="#666" text-anchor="middle">Test Webhooks</text>
  
  <!-- Arrows from Data to Externals -->
  <path d="M 380 750 L 125 850" stroke="#607d8b" stroke-width="2" stroke-dasharray="5,5" fill="none" marker-end="url(#arrow-gray)"/>
  <path d="M 480 750 L 325 850" stroke="#607d8b" stroke-width="2" stroke-dasharray="5,5" fill="none" marker-end="url(#arrow-gray)"/>
  <path d="M 650 750 L 525 850" stroke="#607d8b" stroke-width="2" stroke-dasharray="5,5" fill="none" marker-end="url(#arrow-gray)"/>
  <path d="M 780 750 L 725 850" stroke="#607d8b" stroke-width="2" stroke-dasharray="5,5" fill="none" marker-end="url(#arrow-gray)"/>
  
  <!-- Legend -->
  <rect x="900" y="850" width="300" height="120" fill="#f9f9f9" stroke="#999" stroke-width="1" rx="5"/>
  <text x="1050" y="875" font-family="Arial" font-size="14" font-weight="bold" fill="#333" text-anchor="middle">Legend</text>
  
  <line x1="920" y1="895" x2="960" y2="895" stroke="#0066cc" stroke-width="2" marker-end="url(#arrow-blue)"/>
  <text x="970" y="900" font-family="Arial" font-size="11" fill="#333">Integration</text>
  
  <line x1="920" y1="920" x2="960" y2="920" stroke="#607d8b" stroke-width="2" stroke-dasharray="5,5"/>
  <text x="970" y="925" font-family="Arial" font-size="11" fill="#333">External API</text>
  
  <rect x="920" y="935" width="25" height="20" fill="#e6ffe6" stroke="#388e3c" stroke-width="1"/>
  <text x="955" y="950" font-family="Arial" font-size="11" fill="#333">Complete</text>
  
  <rect x="1090" y="935" width="25" height="20" fill="#ffe6e6" stroke="#d32f2f" stroke-width="1"/>
  <text x="1125" y="950" font-family="Arial" font-size="11" fill="#333">In Progress</text>
</svg>
