<?xml version="1.0" encoding="UTF-8" standalone="no"?>
<svg viewBox="0 0 1400 1000" xmlns="http://www.w3.org/2000/svg">
  <defs>
    <marker id="arrow" viewBox="0 0 10 10" refX="9" refY="5" markerWidth="6" markerHeight="6" orient="auto">
      <path d="M 0 0 L 10 5 L 0 10 z" fill="#2d3748"/>
    </marker>
    <marker id="arrow-github" viewBox="0 0 10 10" refX="9" refY="5" markerWidth="6" markerHeight="6" orient="auto">
      <path d="M 0 0 L 10 5 L 0 10 z" fill="#24292f"/>
    </marker>
    <marker id="arrow-jira" viewBox="0 0 10 10" refX="9" refY="5" markerWidth="6" markerHeight="6" orient="auto">
      <path d="M 0 0 L 10 5 L 0 10 z" fill="#0052cc"/>
    </marker>
    <marker id="arrow-ai" viewBox="0 0 10 10" refX="9" refY="5" markerWidth="6" markerHeight="6" orient="auto">
      <path d="M 0 0 L 10 5 L 0 10 z" fill="#d97757"/>
    </marker>
    <marker id="arrow-cicd" viewBox="0 0 10 10" refX="9" refY="5" markerWidth="6" markerHeight="6" orient="auto">
      <path d="M 0 0 L 10 5 L 0 10 z" fill="#0066cc"/>
    </marker>
    <marker id="arrow-arch" viewBox="0 0 10 10" refX="9" refY="5" markerWidth="6" markerHeight="6" orient="auto">
      <path d="M 0 0 L 10 5 L 0 10 z" fill="#388e3c"/>
    </marker>
    <marker id="arrow-plan" viewBox="0 0 10 10" refX="9" refY="5" markerWidth="6" markerHeight="6" orient="auto">
      <path d="M 0 0 L 10 5 L 0 10 z" fill="#1976d2"/>
    </marker>
  </defs>

  <!-- Title -->
  <text x="700" y="30" font-family="Arial" font-size="24" font-weight="bold" text-anchor="middle" fill="#1a202c">Quality Center Integration Architecture</text>
  <text x="700" y="55" font-family="Arial" font-size="14" text-anchor="middle" fill="#4a5568">TDS-QC-001 | External Integrations and Data Flow</text>
  
  <!-- Quality Center Core -->
  <rect x="500" y="400" width="400" height="120" fill="#fff4e6" stroke="#ff9800" stroke-width="3" rx="10"/>
  <text x="700" y="440" font-family="Arial" font-size="20" font-weight="bold" fill="#ff9800" text-anchor="middle">QUALITY CENTER</text>
  <text x="700" y="465" font-family="Arial" font-size="14" fill="#666" text-anchor="middle">Defects Tests Releases</text>
  <text x="700" y="490" font-family="Arial" font-size="12" fill="#999" text-anchor="middle">PostgreSQL Express API</text>
  
  <!-- GitHub Integration -->
  <rect x="50" y="100" width="280" height="200" fill="#f6f8fa" stroke="#24292f" stroke-width="2" rx="8"/>
  <rect x="50" y="100" width="280" height="40" fill="#24292f" rx="8"/>
  <text x="190" y="128" font-family="Arial" font-size="18" font-weight="bold" text-anchor="middle" fill="#fff">GitHub Integration</text>
  
  <text x="70" y="165" font-family="Arial" font-size="13" font-weight="bold" fill="#333">Features</text>
  <text x="70" y="185" font-family="Arial" font-size="12" fill="#333">Commit Linking</text>
  <text x="70" y="205" font-family="Arial" font-size="12" fill="#333">PR Tracking</text>
  <text x="70" y="225" font-family="Arial" font-size="12" fill="#333">Auto-linking DEF-XXX</text>
  <text x="70" y="245" font-family="Arial" font-size="12" fill="#333">Webhook Push events</text>
  
  <text x="190" y="280" font-family="Arial" font-size="11" fill="#0969da" text-anchor="middle">Status Partial manual linking</text>
  
  <!-- Arrow GitHub to QC -->
  <path d="M 330 200 L 500 440" stroke="#24292f" stroke-width="3" fill="none" marker-end="url(#arrow-github)"/>
  <text x="400" y="310" font-family="Arial" font-size="11" fill="#24292f">Commits PRs Webhooks</text>
  
  <!-- Jira Integration -->
  <rect x="50" y="380" width="280" height="220" fill="#f4f5f7" stroke="#0052cc" stroke-width="2" rx="8"/>
  <rect x="50" y="380" width="280" height="40" fill="#0052cc" rx="8"/>
  <text x="190" y="408" font-family="Arial" font-size="18" font-weight="bold" text-anchor="middle" fill="#fff">Jira Integration</text>
  
  <text x="70" y="445" font-family="Arial" font-size="13" font-weight="bold" fill="#333">Features</text>
  <text x="70" y="465" font-family="Arial" font-size="12" fill="#333">Bi-directional Sync</text>
  <text x="70" y="485" font-family="Arial" font-size="12" fill="#333">Field Mapping</text>
  <text x="70" y="505" font-family="Arial" font-size="12" fill="#333">Webhook Issue updates</text>
  <text x="70" y="525" font-family="Arial" font-size="12" fill="#333">Conflict Resolution</text>
  <text x="70" y="545" font-family="Arial" font-size="12" fill="#333">Sync Log Status</text>
  
  <text x="190" y="580" font-family="Arial" font-size="11" fill="#0052cc" text-anchor="middle">Status Schema ready not impl</text>
  
  <!-- Arrows QC to Jira bidirectional -->
  <path d="M 330 490 L 500 460" stroke="#0052cc" stroke-width="3" fill="none" marker-end="url(#arrow-jira)"/>
  <path d="M 500 480 L 330 510" stroke="#0052cc" stroke-width="3" fill="none" marker-end="url(#arrow-jira)"/>
  <text x="400" y="470" font-family="Arial" font-size="11" fill="#0052cc">Push defects</text>
  <text x="400" y="515" font-family="Arial" font-size="11" fill="#0052cc">Pull updates</text>
  
  <!-- AI Integration -->
  <rect x="50" y="680" width="280" height="240" fill="#fef7f1" stroke="#d97757" stroke-width="2" rx="8"/>
  <rect x="50" y="680" width="280" height="40" fill="#d97757" rx="8"/>
  <text x="190" y="708" font-family="Arial" font-size="18" font-weight="bold" text-anchor="middle" fill="#fff">AI Claude Integration</text>
  
  <text x="70" y="745" font-family="Arial" font-size="13" font-weight="bold" fill="#333">Features Phase 6</text>
  <text x="70" y="765" font-family="Arial" font-size="12" fill="#333">Duplicate Detection</text>
  <text x="70" y="785" font-family="Arial" font-size="12" fill="#333">Severity Suggestion</text>
  <text x="70" y="805" font-family="Arial" font-size="12" fill="#333">Root Cause Prediction</text>
  <text x="70" y="825" font-family="Arial" font-size="12" fill="#333">Pattern Recognition</text>
  <text x="70" y="845" font-family="Arial" font-size="12" fill="#333">Embeddings pgvector</text>
  <text x="70" y="865" font-family="Arial" font-size="12" fill="#333">Semantic Search</text>
  
  <text x="190" y="905" font-family="Arial" font-size="11" fill="#d97757" text-anchor="middle">Status Phase 6 not started</text>
  
  <!-- Arrow AI to QC -->
  <path d="M 330 800 L 500 520" stroke="#d97757" stroke-width="3" fill="none" marker-end="url(#arrow-ai)"/>
  <text x="400" y="650" font-family="Arial" font-size="11" fill="#d97757">AI Insights Suggestions</text>
  
  <!-- CICD Integration -->
  <rect x="1070" y="100" width="280" height="200" fill="#f0f4f8" stroke="#0066cc" stroke-width="2" rx="8"/>
  <rect x="1070" y="100" width="280" height="40" fill="#0066cc" rx="8"/>
  <text x="1210" y="128" font-family="Arial" font-size="18" font-weight="bold" text-anchor="middle" fill="#fff">CICD Integration</text>
  
  <text x="1090" y="165" font-family="Arial" font-size="13" font-weight="bold" fill="#333">Features Phase 5</text>
  <text x="1090" y="185" font-family="Arial" font-size="12" fill="#333">Auto-create Defects</text>
  <text x="1090" y="205" font-family="Arial" font-size="12" fill="#333">Failed Test Webhooks</text>
  <text x="1090" y="225" font-family="Arial" font-size="12" fill="#333">Test Run Linkage</text>
  <text x="1090" y="245" font-family="Arial" font-size="12" fill="#333">Build Status Updates</text>
  
  <text x="1210" y="280" font-family="Arial" font-size="11" fill="#0066cc" text-anchor="middle">Status Phase 5 not started</text>
  
  <!-- Arrow CICD to QC -->
  <path d="M 1070 200 L 900 440" stroke="#0066cc" stroke-width="3" fill="none" marker-end="url(#arrow-cicd)"/>
  <text x="970" y="310" font-family="Arial" font-size="11" fill="#0066cc">Test failures Webhooks</text>
  
  <!-- Architecture Components -->
  <rect x="1070" y="380" width="280" height="180" fill="#e8f5e9" stroke="#388e3c" stroke-width="2" rx="8"/>
  <rect x="1070" y="380" width="280" height="40" fill="#388e3c" rx="8"/>
  <text x="1210" y="408" font-family="Arial" font-size="18" font-weight="bold" text-anchor="middle" fill="#fff">Architecture Models</text>
  
  <text x="1090" y="445" font-family="Arial" font-size="13" font-weight="bold" fill="#333">Features Phase 5</text>
  <text x="1090" y="465" font-family="Arial" font-size="12" fill="#333">Link Defects to Components</text>
  <text x="1090" y="485" font-family="Arial" font-size="12" fill="#333">Component Health Heatmap</text>
  <text x="1090" y="505" font-family="Arial" font-size="12" fill="#333">Impact Analysis</text>
  
  <text x="1210" y="545" font-family="Arial" font-size="11" fill="#388e3c" text-anchor="middle">UNIQUE DIFFERENTIATOR</text>
  
  <!-- Arrows Architecture to QC bidirectional -->
  <path d="M 1070 480 L 900 460" stroke="#388e3c" stroke-width="3" fill="none" marker-end="url(#arrow-arch)"/>
  <path d="M 900 480 L 1070 500" stroke="#388e3c" stroke-width="3" fill="none" marker-end="url(#arrow-arch)"/>
  <text x="970" y="455" font-family="Arial" font-size="11" fill="#388e3c">Component data</text>
  <text x="970" y="510" font-family="Arial" font-size="11" fill="#388e3c">Defect links</text>
  
  <!-- Plan Module -->
  <rect x="1070" y="640" width="280" height="160" fill="#e3f2fd" stroke="#1976d2" stroke-width="2" rx="8"/>
  <rect x="1070" y="640" width="280" height="40" fill="#1976d2" rx="8"/>
  <text x="1210" y="668" font-family="Arial" font-size="18" font-weight="bold" text-anchor="middle" fill="#fff">Plan Module</text>
  
  <text x="1090" y="705" font-family="Arial" font-size="13" font-weight="bold" fill="#333">Integration</text>
  <text x="1090" y="725" font-family="Arial" font-size="12" fill="#333">Link Defects to Stories</text>
  <text x="1090" y="745" font-family="Arial" font-size="12" fill="#333">Link Tests to Stories</text>
  <text x="1090" y="765" font-family="Arial" font-size="12" fill="#333">Block Story Completion</text>
  
  <text x="1210" y="790" font-family="Arial" font-size="11" fill="#1976d2" text-anchor="middle">Status COMPLETE</text>
  
  <!-- Arrows Plan to QC bidirectional -->
  <path d="M 1070 720 L 900 500" stroke="#1976d2" stroke-width="3" fill="none" marker-end="url(#arrow-plan)"/>
  <path d="M 900 510 L 1070 740" stroke="#1976d2" stroke-width="3" fill="none" marker-end="url(#arrow-plan)"/>
  <text x="970" y="605" font-family="Arial" font-size="11" fill="#1976d2">Story data</text>
  <text x="970" y="625" font-family="Arial" font-size="11" fill="#1976d2">Defect Test status</text>
  
  <!-- Legend -->
  <rect x="450" y="830" width="500" height="140" fill="#f9f9f9" stroke="#999" stroke-width="1" rx="5"/>
  <text x="700" y="860" font-family="Arial" font-size="16" font-weight="bold" text-anchor="middle" fill="#333">Integration Patterns</text>
  
  <line x1="470" y1="885" x2="530" y2="885" stroke="#24292f" stroke-width="3" marker-end="url(#arrow-github)"/>
  <text x="540" y="890" font-family="Arial" font-size="12" fill="#333">Unidirectional Push only</text>
  
  <line x1="470" y1="915" x2="510" y2="915" stroke="#0052cc" stroke-width="3" marker-end="url(#arrow-jira)"/>
  <line x1="530" y1="915" x2="490" y2="915" stroke="#0052cc" stroke-width="3" marker-end="url(#arrow-jira)"/>
  <text x="540" y="920" font-family="Arial" font-size="12" fill="#333">Bi-directional Sync</text>
  
  <line x1="470" y1="945" x2="530" y2="945" stroke="#d97757" stroke-width="3" stroke-dasharray="5,5" marker-end="url(#arrow-ai)"/>
  <text x="540" y="950" font-family="Arial" font-size="12" fill="#333">Request Response API call</text>
</svg>
