<svg xmlns="http://www.w3.org/2000/svg" viewBox="0 0 1440 900">
<style>@import url('https://fonts.googleapis.com/css2?family=Inter:wght@400;500;600;700&display=swap');</style>
<rect x="0" y="0" width="1440" height="900" fill="#f8fafc" />
<rect x="0" y="0" width="1440" height="64" fill="#ffffff" stroke="#e2e8f0" stroke-width="1" />
<rect x="24" y="20" width="24" height="24" fill="url(#grad1)" rx="4" />
<rect x="24" y="20" width="24" height="24" fill="#ea580c" rx="4" />
<text x="60" y="38" font-family="Inter, sans-serif" font-size="18" fill="#0f172a" font-weight="bold" text-anchor="start">ARKHITEKTON</text>
<text x="200" y="38" font-family="Inter, sans-serif" font-size="14" fill="#ea580c" font-weight="500" text-anchor="start">Dashboard</text>
<text x="300" y="38" font-family="Inter, sans-serif" font-size="14" fill="#64748b" font-weight="500" text-anchor="start">Governance</text>
<text x="400" y="38" font-family="Inter, sans-serif" font-size="14" fill="#64748b" font-weight="500" text-anchor="start">Catalog</text>
<rect x="40" y="100" width="300" height="120" fill="#ffffff" stroke="#e2e8f0" stroke-width="1" rx="8" />
<text x="64" y="140" font-family="Inter, sans-serif" font-size="14" fill="#64748b" font-weight="normal" text-anchor="start">My Active Models</text>
<text x="64" y="190" font-family="Inter, sans-serif" font-size="36" fill="#0f172a" font-weight="bold" text-anchor="start">12</text>
<rect x="360" y="100" width="300" height="120" fill="#ffffff" stroke="#e2e8f0" stroke-width="1" rx="8" />
<text x="384" y="140" font-family="Inter, sans-serif" font-size="14" fill="#64748b" font-weight="normal" text-anchor="start">Pending Reviews</text>
<text x="384" y="190" font-family="Inter, sans-serif" font-size="36" fill="#ea580c" font-weight="bold" text-anchor="start">3</text>
<rect x="680" y="100" width="300" height="120" fill="#ffffff" stroke="#e2e8f0" stroke-width="1" rx="8" />
<text x="704" y="140" font-family="Inter, sans-serif" font-size="14" fill="#64748b" font-weight="normal" text-anchor="start">Policy Violations</text>
<text x="704" y="190" font-family="Inter, sans-serif" font-size="36" fill="#db2777" font-weight="bold" text-anchor="start">1</text>
<rect x="40" y="260" width="940" height="500" fill="#ffffff" stroke="#e2e8f0" stroke-width="1" rx="8" />
<text x="64" y="300" font-family="Inter, sans-serif" font-size="18" fill="#0f172a" font-weight="bold" text-anchor="start">Recent Activity</text>
<rect x="40" y="340" width="940" height="1" fill="#f1f5f9" />
<path d="M3 3h18v18H3V3zm18 0H3v18h18V3z M5 5h5v5H5V5zm7 0h7v5h-7V5zm0 7h7v7h-7v-7zM5 12h5v7H5v-7z" fill="none" stroke="#2563eb" stroke-width="2" stroke-linecap="round" stroke-linejoin="round" transform="translate(64, 360) scale(0.8333333333333334)" />
<text x="100" y="375" font-family="Inter, sans-serif" font-size="14" fill="#0f172a" font-weight="500" text-anchor="start">Architecture Update 101</text>
<rect x="840" y="356" width="80" height="24" fill="#f1f5f9" rx="12" />
<text x="880" y="372" font-family="Inter, sans-serif" font-size="12" fill="#475569" font-weight="normal" text-anchor="middle">System</text>
<rect x="40" y="410" width="940" height="1" fill="#f1f5f9" />
<path d="M3 3h18v18H3V3zm18 0H3v18h18V3z M5 5h5v5H5V5zm7 0h7v5h-7V5zm0 7h7v7h-7v-7zM5 12h5v7H5v-7z" fill="none" stroke="#2563eb" stroke-width="2" stroke-linecap="round" stroke-linejoin="round" transform="translate(64, 430) scale(0.8333333333333334)" />
<text x="100" y="445" font-family="Inter, sans-serif" font-size="14" fill="#0f172a" font-weight="500" text-anchor="start">Architecture Update 102</text>
<rect x="840" y="426" width="80" height="24" fill="#f1f5f9" rx="12" />
<text x="880" y="442" font-family="Inter, sans-serif" font-size="12" fill="#475569" font-weight="normal" text-anchor="middle">System</text>
<rect x="40" y="480" width="940" height="1" fill="#f1f5f9" />
<path d="M3 3h18v18H3V3zm18 0H3v18h18V3z M5 5h5v5H5V5zm7 0h7v5h-7V5zm0 7h7v7h-7v-7zM5 12h5v7H5v-7z" fill="none" stroke="#2563eb" stroke-width="2" stroke-linecap="round" stroke-linejoin="round" transform="translate(64, 500) scale(0.8333333333333334)" />
<text x="100" y="515" font-family="Inter, sans-serif" font-size="14" fill="#0f172a" font-weight="500" text-anchor="start">Architecture Update 103</text>
<rect x="840" y="496" width="80" height="24" fill="#f1f5f9" rx="12" />
<text x="880" y="512" font-family="Inter, sans-serif" font-size="12" fill="#475569" font-weight="normal" text-anchor="middle">System</text>
<rect x="40" y="550" width="940" height="1" fill="#f1f5f9" />
<path d="M3 3h18v18H3V3zm18 0H3v18h18V3z M5 5h5v5H5V5zm7 0h7v5h-7V5zm0 7h7v7h-7v-7zM5 12h5v7H5v-7z" fill="none" stroke="#2563eb" stroke-width="2" stroke-linecap="round" stroke-linejoin="round" transform="translate(64, 570) scale(0.8333333333333334)" />
<text x="100" y="585" font-family="Inter, sans-serif" font-size="14" fill="#0f172a" font-weight="500" text-anchor="start">Architecture Update 104</text>
<rect x="840" y="566" width="80" height="24" fill="#f1f5f9" rx="12" />
<text x="880" y="582" font-family="Inter, sans-serif" font-size="12" fill="#475569" font-weight="normal" text-anchor="middle">System</text>
</svg>