<svg xmlns="http://www.w3.org/2000/svg" viewBox="0 0 1440 900">
<style>@import url('https://fonts.googleapis.com/css2?family=Inter:wght@400;500;600;700&display=swap');</style>
<rect x="0" y="0" width="1440" height="900" fill="#ffffff" />
<rect x="0" y="0" width="70" height="900" fill="#050038" />
<rect x="14" y="20" width="42" height="42" fill="#2563eb" rx="8" />
<text x="35" y="46" font-family="Inter, sans-serif" font-size="20" fill="#ffffff" font-weight="bold" text-anchor="middle">A</text>
<rect x="18" y="80" width="34" height="34" fill="none" stroke="#ffffff" stroke-width="1" rx="8" opacity="0.3" />
<path d="M12 4v16m8-8H4" fill="none" stroke="#94a3b8" stroke-width="2" stroke-linecap="round" stroke-linejoin="round" transform="translate(23, 85) scale(1)" />
<rect x="70" y="0" width="260" height="900" fill="#f8fafc" stroke="#e2e8f0" stroke-width="1" />
<text x="90" y="40" font-family="Inter, sans-serif" font-size="16" fill="#1e293b" font-weight="bold" text-anchor="start">Arkhitekton</text>
<rect x="82" y="70" width="236" height="32" fill="#eff6ff" rx="6" />
<text x="118" y="91" font-family="Inter, sans-serif" font-size="14" fill="#1d4ed8" font-weight="500" text-anchor="start">All boards</text>
<path d="M3 3h18v18H3V3zm18 0H3v18h18V3z M5 5h5v5H5V5zm7 0h7v5h-7V5zm0 7h7v7h-7v-7zM5 12h5v7H5v-7z" fill="none" stroke="#1d4ed8" stroke-width="2" stroke-linecap="round" stroke-linejoin="round" transform="translate(90, 74) scale(0.6666666666666666)" />
<text x="118" y="131" font-family="Inter, sans-serif" font-size="14" fill="#475569" font-weight="normal" text-anchor="start">Starred</text>
<path d="M12 4v16m8-8H4" fill="none" stroke="#475569" stroke-width="2" stroke-linecap="round" stroke-linejoin="round" transform="translate(90, 114) scale(0.6666666666666666)" />
<rect x="360" y="20" width="600" height="44" fill="#ffffff" stroke="#cbd5e1" stroke-width="1" rx="6" />
<path d="M21 21l-6-6m2-5a7 7 0 11-14 0 7 7 0 0114 0z" fill="none" stroke="#94a3b8" stroke-width="2" stroke-linecap="round" stroke-linejoin="round" transform="translate(372, 30) scale(0.8333333333333334)" />
<text x="404" y="47" font-family="Inter, sans-serif" font-size="14" fill="#94a3b8" font-weight="normal" text-anchor="start">Search boards...</text>
<text x="360" y="120" font-family="Inter, sans-serif" font-size="18" fill="#0f172a" font-weight="bold" text-anchor="start">Recent Boards</text>
<rect x="360" y="150" width="240" height="180" fill="#ffffff" stroke="#e2e8f0" stroke-width="1" rx="4" />
<rect x="360" y="150" width="240" height="120" fill="#fefce8" />
<text x="376" y="300" font-family="Inter, sans-serif" font-size="14" fill="#0f172a" font-weight="500" text-anchor="start">Board 1</text>
<text x="376" y="318" font-family="Inter, sans-serif" font-size="12" fill="#64748b" font-weight="normal" text-anchor="start">Modified yesterday</text>
<rect x="620" y="150" width="240" height="180" fill="#ffffff" stroke="#e2e8f0" stroke-width="1" rx="4" />
<rect x="620" y="150" width="240" height="120" fill="#fefce8" />
<text x="636" y="300" font-family="Inter, sans-serif" font-size="14" fill="#0f172a" font-weight="500" text-anchor="start">Board 2</text>
<text x="636" y="318" font-family="Inter, sans-serif" font-size="12" fill="#64748b" font-weight="normal" text-anchor="start">Modified yesterday</text>
<rect x="880" y="150" width="240" height="180" fill="#ffffff" stroke="#e2e8f0" stroke-width="1" rx="4" />
<rect x="880" y="150" width="240" height="120" fill="#fefce8" />
<text x="896" y="300" font-family="Inter, sans-serif" font-size="14" fill="#0f172a" font-weight="500" text-anchor="start">Board 3</text>
<text x="896" y="318" font-family="Inter, sans-serif" font-size="12" fill="#64748b" font-weight="normal" text-anchor="start">Modified yesterday</text>
</svg>