<svg xmlns="http://www.w3.org/2000/svg" viewBox="0 0 1440 900">
  <defs>
    <linearGradient id="logoGrad" x1="0%" y1="0%" x2="100%" y2="100%">
      <stop offset="0%" style="stop-color:#ea580c;stop-opacity:1" />
      <stop offset="100%" style="stop-color:#dc2626;stop-opacity:1" />
    </linearGradient>
    <linearGradient id="quickActionsGrad" x1="0%" y1="0%" x2="100%" y2="100%">
      <stop offset="0%" style="stop-color:#312e81;stop-opacity:1" />
      <stop offset="100%" style="stop-color:#1e293b;stop-opacity:1" />
    </linearGradient>
  </defs>
  <style>
    text { font-family: -apple-system, BlinkMacSystemFont, 'Segoe UI', 'Inter', sans-serif; }
  </style>
  <!-- Background -->
  <rect x="0" y="0" width="1440" height="900" fill="#f8fafc"/>
  
  <!-- Header Bar -->
  <rect x="0" y="0" width="1440" height="56" fill="#ffffff" stroke="#e2e8f0" stroke-width="1"/>
  
  <!-- Logo -->
  <rect x="24" y="20" width="24" height="24" fill="url(#logoGrad)" rx="4"/>
  <text x="60" y="38" font-family="Inter, sans-serif" font-size="18" fill="#0f172a" font-weight="bold" text-anchor="start">ARKHITEKTON</text>
  
  <!-- Navigation -->
  <text x="200" y="38" font-family="Inter, sans-serif" font-size="14" fill="#ea580c" font-weight="500" text-anchor="start">Dashboard</text>
  <text x="300" y="38" font-family="Inter, sans-serif" font-size="14" fill="#64748b" font-weight="500" text-anchor="start">Governance</text>
  <text x="400" y="38" font-family="Inter, sans-serif" font-size="14" fill="#64748b" font-weight="500" text-anchor="start">Catalog</text>
  <text x="480" y="38" font-family="Inter, sans-serif" font-size="14" fill="#64748b" font-weight="500" text-anchor="start">Reports</text>
  
  <!-- Header Icons -->
  <path d="M10 2a6 6 0 00-6 6v3.586l-.707.707A1 1 0 004 14h12a1 1 0 00.707-1.707L16 11.586V8a6 6 0 00-6-6zM16 18a2 2 0 01-2 2H6a2 2 0 01-2-2v-1h12v1z" fill="none" stroke="#94a3b8" stroke-width="2" stroke-linecap="round" stroke-linejoin="round" transform="translate(1300, 18) scale(0.7)"/>
  <circle cx="1380" cy="28" r="16" fill="#e2e8f0"/>
  <text x="1380" y="33" font-family="Inter, sans-serif" font-size="12" fill="#475569" font-weight="500" text-anchor="middle">AJ</text>
  
  <!-- Main Content Grid -->
  <!-- Stats Cards -->
  <!-- Card 1 -->
  <rect x="40" y="100" width="300" height="120" fill="#ffffff" stroke="#e2e8f0" stroke-width="1" rx="8"/>
  <text x="64" y="140" font-family="Inter, sans-serif" font-size="14" fill="#64748b" font-weight="500" text-anchor="start">My Active Models</text>
  <text x="64" y="190" font-family="Inter, sans-serif" font-size="36" fill="#0f172a" font-weight="bold" text-anchor="start">12</text>
  
  <!-- Card 2 -->
  <rect x="360" y="100" width="300" height="120" fill="#ffffff" stroke="#e2e8f0" stroke-width="1" rx="8"/>
  <text x="384" y="140" font-family="Inter, sans-serif" font-size="14" fill="#64748b" font-weight="500" text-anchor="start">Pending Reviews</text>
  <text x="384" y="190" font-family="Inter, sans-serif" font-size="36" fill="#ea580c" font-weight="bold" text-anchor="start">3</text>
  
  <!-- Card 3 -->
  <rect x="680" y="100" width="300" height="120" fill="#ffffff" stroke="#e2e8f0" stroke-width="1" rx="8"/>
  <text x="704" y="140" font-family="Inter, sans-serif" font-size="14" fill="#64748b" font-weight="500" text-anchor="start">Policy Violations</text>
  <text x="704" y="190" font-family="Inter, sans-serif" font-size="36" fill="#db2777" font-weight="bold" text-anchor="start">1</text>
  
  <!-- Recent Activity Card -->
  <rect x="40" y="260" width="940" height="500" fill="#ffffff" stroke="#e2e8f0" stroke-width="1" rx="8"/>
  <text x="64" y="300" font-family="Inter, sans-serif" font-size="18" fill="#0f172a" font-weight="bold" text-anchor="start">Recent Activity</text>
  <rect x="1000" y="280" width="80" height="32" fill="none" stroke="#e2e8f0" stroke-width="1" rx="6"/>
  <text x="1040" y="300" font-family="Inter, sans-serif" font-size="14" fill="#475569" font-weight="500" text-anchor="middle">View All</text>
  
  <!-- Divider -->
  <rect x="40" y="340" width="940" height="1" fill="#f1f5f9"/>
  
  <!-- Activity Items -->
  <!-- Item 1 -->
  <rect x="64" y="360" width="40" height="40" fill="#eff6ff" rx="8"/>
  <path d="M3 3h18v18H3V3zm18 0H3v18h18V3z M5 5h5v5H5V5zm7 0h7v5h-7V5zm0 7h7v7h-7v-7zM5 12h5v7H5v-7z" fill="none" stroke="#2563eb" stroke-width="2" stroke-linecap="round" stroke-linejoin="round" transform="translate(72, 368) scale(0.85)"/>
  <text x="120" y="375" font-family="Inter, sans-serif" font-size="14" fill="#0f172a" font-weight="500" text-anchor="start">Payer Platform Architecture</text>
  <text x="120" y="393" font-family="Inter, sans-serif" font-size="12" fill="#64748b" font-weight="normal" text-anchor="start">Updated 2 mins ago by Antonio Jones</text>
  <rect x="840" y="356" width="80" height="24" fill="#f1f5f9" rx="12"/>
  <text x="880" y="372" font-family="Inter, sans-serif" font-size="12" fill="#475569" font-weight="normal" text-anchor="middle">System</text>
  
  <!-- Item 2 -->
  <rect x="40" y="410" width="940" height="1" fill="#f1f5f9"/>
  <rect x="64" y="430" width="40" height="40" fill="#eff6ff" rx="8"/>
  <path d="M3 3h18v18H3V3zm18 0H3v18h18V3z M5 5h5v5H5V5zm7 0h7v5h-7V5zm0 7h7v7h-7v-7zM5 12h5v7H5v-7z" fill="none" stroke="#2563eb" stroke-width="2" stroke-linecap="round" stroke-linejoin="round" transform="translate(72, 438) scale(0.85)"/>
  <text x="120" y="445" font-family="Inter, sans-serif" font-size="14" fill="#0f172a" font-weight="500" text-anchor="start">Claims Processing Flow</text>
  <text x="120" y="463" font-family="Inter, sans-serif" font-size="12" fill="#64748b" font-weight="normal" text-anchor="start">Updated 2 hours ago by Sarah Chen</text>
  <rect x="840" y="426" width="80" height="24" fill="#f1f5f9" rx="12"/>
  <text x="880" y="442" font-family="Inter, sans-serif" font-size="12" fill="#475569" font-weight="normal" text-anchor="middle">Process</text>
  
  <!-- Item 3 -->
  <rect x="40" y="480" width="940" height="1" fill="#f1f5f9"/>
  <rect x="64" y="500" width="40" height="40" fill="#eff6ff" rx="8"/>
  <path d="M3 3h18v18H3V3zm18 0H3v18h18V3z M5 5h5v5H5V5zm7 0h7v5h-7V5zm0 7h7v7h-7v-7zM5 12h5v7H5v-7z" fill="none" stroke="#2563eb" stroke-width="2" stroke-linecap="round" stroke-linejoin="round" transform="translate(72, 508) scale(0.85)"/>
  <text x="120" y="515" font-family="Inter, sans-serif" font-size="14" fill="#0f172a" font-weight="500" text-anchor="start">Identity Management</text>
  <text x="120" y="533" font-family="Inter, sans-serif" font-size="12" fill="#64748b" font-weight="normal" text-anchor="start">Updated yesterday by Mike Ross</text>
  <rect x="840" y="496" width="80" height="24" fill="#f1f5f9" rx="12"/>
  <text x="880" y="512" font-family="Inter, sans-serif" font-size="12" fill="#475569" font-weight="normal" text-anchor="middle">Security</text>
  
  <!-- Right Sidebar -->
  <!-- My Tasks Card -->
  <rect x="1000" y="260" width="400" height="240" fill="#ffffff" stroke="#e2e8f0" stroke-width="1" rx="8"/>
  <text x="1024" y="300" font-family="Inter, sans-serif" font-size="18" fill="#0f172a" font-weight="bold" text-anchor="start">My Tasks</text>
  
  <!-- Task Items -->
  <circle cx="1024" cy="340" r="8" fill="none" stroke="#cbd5e1" stroke-width="2"/>
  <text x="1048" y="345" font-family="Inter, sans-serif" font-size="14" fill="#0f172a" font-weight="500" text-anchor="start">Approve PCI Data Model</text>
  <text x="1048" y="363" font-family="Inter, sans-serif" font-size="12" fill="#ea580c" font-weight="normal" text-anchor="start">Today</text>
  <text x="1150" y="363" font-family="Inter, sans-serif" font-size="12" fill="#64748b" font-weight="normal" text-anchor="start">•</text>
  <text x="1160" y="363" font-family="Inter, sans-serif" font-size="12" fill="#64748b" font-weight="normal" text-anchor="start">Governance</text>
  
  <circle cx="1024" cy="400" r="8" fill="none" stroke="#cbd5e1" stroke-width="2"/>
  <text x="1048" y="405" font-family="Inter, sans-serif" font-size="14" fill="#0f172a" font-weight="500" text-anchor="start">Review AWS Migration</text>
  <text x="1048" y="423" font-family="Inter, sans-serif" font-size="12" fill="#ea580c" font-weight="normal" text-anchor="start">Tomorrow</text>
  <text x="1150" y="423" font-family="Inter, sans-serif" font-size="12" fill="#64748b" font-weight="normal" text-anchor="start">•</text>
  <text x="1160" y="423" font-family="Inter, sans-serif" font-size="12" fill="#64748b" font-weight="normal" text-anchor="start">Design</text>
  
  <circle cx="1024" cy="460" r="8" fill="none" stroke="#cbd5e1" stroke-width="2"/>
  <text x="1048" y="465" font-family="Inter, sans-serif" font-size="14" fill="#0f172a" font-weight="500" text-anchor="start">Update Team Permissions</text>
  <text x="1048" y="483" font-family="Inter, sans-serif" font-size="12" fill="#ea580c" font-weight="normal" text-anchor="start">Dec 12</text>
  <text x="1150" y="483" font-family="Inter, sans-serif" font-size="12" fill="#64748b" font-weight="normal" text-anchor="start">•</text>
  <text x="1160" y="483" font-family="Inter, sans-serif" font-size="12" fill="#64748b" font-weight="normal" text-anchor="start">Admin</text>
  
  <!-- Quick Actions Card -->
  <rect x="1000" y="520" width="400" height="240" fill="url(#quickActionsGrad)" rx="8"/>
  <text x="1024" y="560" font-family="Inter, sans-serif" font-size="18" fill="#ffffff" font-weight="bold" text-anchor="start">Quick Actions</text>
  
  <!-- Action Buttons Grid -->
  <rect x="1024" y="580" width="180" height="36" fill="rgba(255,255,255,0.1)" rx="6"/>
  <text x="1114" y="602" font-family="Inter, sans-serif" font-size="14" fill="#ffffff" font-weight="500" text-anchor="middle">New Model</text>
  
  <rect x="1220" y="580" width="180" height="36" fill="rgba(255,255,255,0.1)" rx="6"/>
  <text x="1310" y="602" font-family="Inter, sans-serif" font-size="14" fill="#ffffff" font-weight="500" text-anchor="middle">Scan Cloud</text>
  
  <rect x="1024" y="630" width="180" height="36" fill="rgba(255,255,255,0.1)" rx="6"/>
  <text x="1114" y="652" font-family="Inter, sans-serif" font-size="14" fill="#ffffff" font-weight="500" text-anchor="middle">Run Report</text>
  
  <rect x="1220" y="630" width="180" height="36" fill="rgba(255,255,255,0.1)" rx="6"/>
  <text x="1310" y="652" font-family="Inter, sans-serif" font-size="14" fill="#ffffff" font-weight="500" text-anchor="middle">Invite User</text>
</svg>