<svg xmlns="http://www.w3.org/2000/svg" viewBox="0 0 1440 900">
  <style>
    text { font-family: -apple-system, BlinkMacSystemFont, 'Segoe UI', 'Inter', sans-serif; }
  </style>
  <!-- Background -->
  <rect x="0" y="0" width="1440" height="900" fill="#ffffff"/>
  
  <!-- Far Left Sidebar (Teams/Spaces) -->
  <rect x="0" y="0" width="64" height="900" fill="#050038"/>
  
  <!-- Team Icon 1 (Active) -->
  <rect x="12" y="20" width="40" height="40" fill="#2563eb" rx="8"/>
  <text x="32" y="44" font-family="Inter, sans-serif" font-size="18" fill="#ffffff" font-weight="bold" text-anchor="middle">A</text>
  
  <!-- Team Icon 2 -->
  <rect x="12" y="80" width="40" height="40" fill="rgba(255,255,255,0.1)" rx="8"/>
  <text x="32" y="104" font-family="Inter, sans-serif" font-size="18" fill="#ffffff" font-weight="bold" text-anchor="middle">P</text>
  
  <!-- Divider -->
  <rect x="16" y="140" width="32" height="2" fill="rgba(255,255,255,0.2)"/>
  
  <!-- Add Team Button -->
  <rect x="12" y="160" width="40" height="40" fill="none" stroke="rgba(255,255,255,0.3)" stroke-width="2" rx="8"/>
  <path d="M12 4v16m8-8H4" fill="none" stroke="rgba(255,255,255,0.5)" stroke-width="2.5" stroke-linecap="round" stroke-linejoin="round" transform="translate(20, 20) scale(1)"/>
  
  <!-- Middle Sidebar -->
  <rect x="64" y="0" width="256" height="900" fill="#f8fafc" stroke="#e2e8f0" stroke-width="1"/>
  
  <!-- Sidebar Header -->
  <text x="84" y="40" font-family="Inter, sans-serif" font-size="16" fill="#1e293b" font-weight="bold" text-anchor="start">Arkhitekton</text>
  <path d="M10.325 4.317c.426-1.756 2.924-1.756 3.35 0a1.724 1.724 0 002.573 1.066c1.543-.94 3.31.826 2.37 2.37a1.724 1.724 0 001.065 2.572c1.756.426 1.756 2.924 0 3.35a1.724 1.724 0 00-1.066 2.573c.94 1.543-.826 3.31-2.37 2.37a1.724 1.724 0 00-2.572 1.065c-.426 1.756-2.924 1.756-3.35 0a1.724 1.724 0 00-2.573-1.066c-1.543.94-3.31-.826-2.37-2.37a1.724 1.724 0 00-1.065-2.572c-1.756-.426-1.756-2.924 0-3.35a1.724 1.724 0 001.066-2.573c-.94-1.543.826-3.31 2.37-2.37.996.608 2.296.07 2.572-1.065z M15 12a3 3 0 11-6 0 3 3 0 016 0z" fill="none" stroke="#94a3b8" stroke-width="2" stroke-linecap="round" stroke-linejoin="round" transform="translate(280, 20) scale(0.7)"/>
  
  <!-- All Boards Menu -->
  <rect x="72" y="70" width="232" height="36" fill="#eff6ff" rx="6"/>
  <path d="M3 3h18v18H3V3zm18 0H3v18h18V3z M5 5h5v5H5V5zm7 0h7v5h-7V5zm0 7h7v7h-7v-7zM5 12h5v7H5v-7z" fill="none" stroke="#1d4ed8" stroke-width="2" stroke-linecap="round" stroke-linejoin="round" transform="translate(80, 78) scale(0.7)"/>
  <text x="108" y="91" font-family="Inter, sans-serif" font-size="14" fill="#1d4ed8" font-weight="500" text-anchor="start">All boards</text>
  
  <!-- Starred Menu -->
  <text x="108" y="131" font-family="Inter, sans-serif" font-size="14" fill="#475569" font-weight="500" text-anchor="start">Starred</text>
  <path d="M12 2l3.09 6.26L22 9.27l-5 4.87 1.18 6.88L12 17.77l-6.18 3.25L7 14.14 2 9.27l6.91-1.01L12 2z" fill="none" stroke="#475569" stroke-width="2" stroke-linecap="round" stroke-linejoin="round" transform="translate(80, 114) scale(0.7)"/>
  
  <!-- Projects Section -->
  <text x="84" y="200" font-family="Inter, sans-serif" font-size="11" fill="#64748b" font-weight="700" text-anchor="start" letter-spacing="0.05em">PROJECTS</text>
  <path d="M12 4v16m8-8H4" fill="none" stroke="#94a3b8" stroke-width="2" stroke-linecap="round" stroke-linejoin="round" transform="translate(280, 190) scale(0.6)"/>
  
  <!-- Project Items -->
  <path d="M3 7v10a2 2 0 002 2h14a2 2 0 002-2V9a2 2 0 00-2-2h-6l-2-2H5a2 2 0 00-2 2z" fill="none" stroke="#94a3b8" stroke-width="2" stroke-linecap="round" stroke-linejoin="round" transform="translate(84, 220) scale(0.7)"/>
  <text x="108" y="232" font-family="Inter, sans-serif" font-size="14" fill="#475569" font-weight="normal" text-anchor="start">Arkhitekton Core</text>
  
  <path d="M3 7v10a2 2 0 002 2h14a2 2 0 002-2V9a2 2 0 00-2-2h-6l-2-2H5a2 2 0 00-2 2z" fill="none" stroke="#94a3b8" stroke-width="2" stroke-linecap="round" stroke-linejoin="round" transform="translate(84, 252) scale(0.7)"/>
  <text x="108" y="264" font-family="Inter, sans-serif" font-size="14" fill="#475569" font-weight="normal" text-anchor="start">Payer Platform</text>
  
  <path d="M3 7v10a2 2 0 002 2h14a2 2 0 002-2V9a2 2 0 00-2-2h-6l-2-2H5a2 2 0 00-2 2z" fill="none" stroke="#94a3b8" stroke-width="2" stroke-linecap="round" stroke-linejoin="round" transform="translate(84, 284) scale(0.7)"/>
  <text x="108" y="296" font-family="Inter, sans-serif" font-size="14" fill="#475569" font-weight="normal" text-anchor="start">Clinical Data</text>
  
  <path d="M3 7v10a2 2 0 002 2h14a2 2 0 002-2V9a2 2 0 00-2-2h-6l-2-2H5a2 2 0 00-2 2z" fill="none" stroke="#94a3b8" stroke-width="2" stroke-linecap="round" stroke-linejoin="round" transform="translate(84, 316) scale(0.7)"/>
  <text x="108" y="328" font-family="Inter, sans-serif" font-size="14" fill="#475569" font-weight="normal" text-anchor="start">Member Experience</text>
  
  <!-- Main Content Area -->
  <!-- Search Bar -->
  <rect x="360" y="20" width="600" height="44" fill="#ffffff" stroke="#cbd5e1" stroke-width="1" rx="6"/>
  <path d="M21 21l-6-6m2-5a7 7 0 11-14 0 7 7 0 0114 0z" fill="none" stroke="#94a3b8" stroke-width="2" stroke-linecap="round" stroke-linejoin="round" transform="translate(372, 30) scale(0.85)"/>
  <text x="404" y="47" font-family="Inter, sans-serif" font-size="14" fill="#94a3b8" font-weight="normal" text-anchor="start">Search boards...</text>
  
  <!-- Action Buttons -->
  <rect x="1000" y="20" width="140" height="44" fill="none" stroke="#cbd5e1" stroke-width="1" rx="6"/>
  <text x="1070" y="47" font-family="Inter, sans-serif" font-size="14" fill="#475569" font-weight="500" text-anchor="middle">Explore templates</text>
  
  <rect x="1160" y="20" width="120" height="44" fill="#2563eb" rx="6"/>
  <text x="1220" y="47" font-family="Inter, sans-serif" font-size="14" fill="#ffffff" font-weight="500" text-anchor="middle">+ New board</text>
  
  <!-- Recommended Templates -->
  <text x="360" y="120" font-family="Inter, sans-serif" font-size="18" fill="#0f172a" font-weight="bold" text-anchor="start">Recommended templates</text>
  
  <rect x="360" y="140" width="240" height="96" fill="#ffffff" stroke="#e2e8f0" stroke-width="1" rx="4"/>
  <text x="480" y="195" font-family="Inter, sans-serif" font-size="14" fill="#475569" font-weight="500" text-anchor="middle">Mind map</text>
  
  <rect x="620" y="140" width="240" height="96" fill="#ffffff" stroke="#e2e8f0" stroke-width="1" rx="4"/>
  <text x="740" y="195" font-family="Inter, sans-serif" font-size="14" fill="#475569" font-weight="500" text-anchor="middle">Kanban</text>
  
  <rect x="880" y="140" width="240" height="96" fill="#ffffff" stroke="#e2e8f0" stroke-width="1" rx="4"/>
  <text x="1000" y="195" font-family="Inter, sans-serif" font-size="14" fill="#475569" font-weight="500" text-anchor="middle">Flowchart</text>
  
  <rect x="1140" y="140" width="240" height="96" fill="#ffffff" stroke="#e2e8f0" stroke-width="1" rx="4"/>
  <text x="1260" y="195" font-family="Inter, sans-serif" font-size="14" fill="#475569" font-weight="500" text-anchor="middle">Service Blueprint</text>
  
  <!-- Boards in this team -->
  <text x="360" y="280" font-family="Inter, sans-serif" font-size="18" fill="#0f172a" font-weight="bold" text-anchor="start">Boards in this team</text>
  <text x="720" y="280" font-family="Inter, sans-serif" font-size="14" fill="#0f172a" font-weight="500" text-anchor="start">Last opened</text>
  <path d="M6 9l6 6 6-6" fill="none" stroke="#64748b" stroke-width="2" stroke-linecap="round" stroke-linejoin="round" transform="translate(800, 270) scale(0.7)"/>
  
  <!-- Board List Items -->
  <!-- Item 1 -->
  <rect x="360" y="300" width="1000" height="60" fill="#ffffff" stroke="#e2e8f0" stroke-width="1"/>
  <rect x="380" y="320" width="40" height="32" fill="#fef9c3" stroke="#fde047" stroke-width="1" rx="4"/>
  <text x="440" y="340" font-family="Inter, sans-serif" font-size="14" fill="#0f172a" font-weight="500" text-anchor="start">Payer Platform Architecture</text>
  <text x="440" y="358" font-family="Inter, sans-serif" font-size="12" fill="#64748b" font-weight="normal" text-anchor="start">Modified by Antonio Jones • 2 mins ago</text>
  
  <!-- Item 2 -->
  <rect x="360" y="370" width="1000" height="60" fill="#ffffff" stroke="#e2e8f0" stroke-width="1"/>
  <rect x="380" y="390" width="40" height="32" fill="#fef9c3" stroke="#fde047" stroke-width="1" rx="4"/>
  <text x="440" y="410" font-family="Inter, sans-serif" font-size="14" fill="#0f172a" font-weight="500" text-anchor="start">Claims Processing Flow</text>
  <text x="440" y="428" font-family="Inter, sans-serif" font-size="12" fill="#64748b" font-weight="normal" text-anchor="start">Modified by Sarah Chen • 2 hours ago</text>
  
  <!-- Item 3 -->
  <rect x="360" y="440" width="1000" height="60" fill="#ffffff" stroke="#e2e8f0" stroke-width="1"/>
  <rect x="380" y="460" width="40" height="32" fill="#fef9c3" stroke="#fde047" stroke-width="1" rx="4"/>
  <text x="440" y="480" font-family="Inter, sans-serif" font-size="14" fill="#0f172a" font-weight="500" text-anchor="start">Identity Management</text>
  <text x="440" y="498" font-family="Inter, sans-serif" font-size="12" fill="#64748b" font-weight="normal" text-anchor="start">Modified by Mike Ross • yesterday</text>
</svg>