<svg xmlns="http://www.w3.org/2000/svg" viewBox="0 0 1440 900">
<style>@import url('https://fonts.googleapis.com/css2?family=Inter:wght@400;500;600;700&display=swap');</style>
<rect x="0" y="0" width="1440" height="900" fill="#fcfcfc" />
<rect x="0" y="0" width="260" height="900" fill="#ffffff" stroke="#e2e8f0" stroke-width="1" />
<rect x="16" y="16" width="24" height="24" fill="#000000" rx="4" />
<text x="23" y="33" font-family="Inter, sans-serif" font-size="14" fill="#ffffff" font-weight="bold" text-anchor="middle">A</text>
<text x="52" y="33" font-family="Inter, sans-serif" font-size="14" fill="#0f172a" font-weight="bold" text-anchor="start">Antonio's Team</text>
<path d="M6 9l6 6 6-6" fill="none" stroke="#94a3b8" stroke-width="2" stroke-linecap="round" stroke-linejoin="round" transform="translate(220, 20) scale(0.6666666666666666)" />
<rect x="12" y="60" width="236" height="32" fill="#eff6ff" rx="4" />
<text x="48" y="80" font-family="Inter, sans-serif" font-size="14" fill="#2563eb" font-weight="500" text-anchor="start">Recents</text>
<path d="M3 3h18v18H3V3zm18 0H3v18h18V3z M5 5h5v5H5V5zm7 0h7v5h-7V5zm0 7h7v7h-7v-7zM5 12h5v7H5v-7z" fill="none" stroke="#2563eb" stroke-width="2" stroke-linecap="round" stroke-linejoin="round" transform="translate(24, 68) scale(0.6666666666666666)" />
<text x="48" y="112" font-family="Inter, sans-serif" font-size="14" fill="#475569" font-weight="normal" text-anchor="start">Drafts</text>
<path d="M3 3h18v18H3V3zm18 0H3v18h18V3z M5 5h5v5H5V5zm7 0h7v5h-7V5zm0 7h7v7h-7v-7zM5 12h5v7H5v-7z" fill="none" stroke="#475569" stroke-width="2" stroke-linecap="round" stroke-linejoin="round" transform="translate(24, 100) scale(0.6666666666666666)" />
<text x="300" y="50" font-family="Inter, sans-serif" font-size="20" fill="#0f172a" font-weight="500" text-anchor="start">Recently viewed</text>
<rect x="300" y="80" width="260" height="200" fill="#f1f5f9" stroke="#e2e8f0" stroke-width="1" rx="8" />
<rect x="320" y="100" width="220" height="120" fill="#ffffff" stroke="#e2e8f0" stroke-width="1" rx="4" opacity="0.8" />
<path d="M3 3h18v18H3V3zm18 0H3v18h18V3z M5 5h5v5H5V5zm7 0h7v5h-7V5zm0 7h7v7h-7v-7zM5 12h5v7H5v-7z" fill="none" stroke="#cbd5e1" stroke-width="2" stroke-linecap="round" stroke-linejoin="round" transform="translate(418, 150) scale(1)" />
<text x="300" y="300" font-family="Inter, sans-serif" font-size="14" fill="#0f172a" font-weight="500" text-anchor="start">Payer Platform Architecture</text>
<text x="300" y="318" font-family="Inter, sans-serif" font-size="12" fill="#64748b" font-weight="normal" text-anchor="start">2 mins ago</text>
<rect x="580" y="80" width="260" height="200" fill="#f1f5f9" stroke="#e2e8f0" stroke-width="1" rx="8" />
<rect x="600" y="100" width="220" height="120" fill="#ffffff" stroke="#e2e8f0" stroke-width="1" rx="4" opacity="0.8" />
<path d="M3 3h18v18H3V3zm18 0H3v18h18V3z M5 5h5v5H5V5zm7 0h7v5h-7V5zm0 7h7v7h-7v-7zM5 12h5v7H5v-7z" fill="none" stroke="#cbd5e1" stroke-width="2" stroke-linecap="round" stroke-linejoin="round" transform="translate(698, 150) scale(1)" />
<text x="580" y="300" font-family="Inter, sans-serif" font-size="14" fill="#0f172a" font-weight="500" text-anchor="start">Claims Processing Flow</text>
<text x="580" y="318" font-family="Inter, sans-serif" font-size="12" fill="#64748b" font-weight="normal" text-anchor="start">2 mins ago</text>
<rect x="860" y="80" width="260" height="200" fill="#f1f5f9" stroke="#e2e8f0" stroke-width="1" rx="8" />
<rect x="880" y="100" width="220" height="120" fill="#ffffff" stroke="#e2e8f0" stroke-width="1" rx="4" opacity="0.8" />
<path d="M3 3h18v18H3V3zm18 0H3v18h18V3z M5 5h5v5H5V5zm7 0h7v5h-7V5zm0 7h7v7h-7v-7zM5 12h5v7H5v-7z" fill="none" stroke="#cbd5e1" stroke-width="2" stroke-linecap="round" stroke-linejoin="round" transform="translate(978, 150) scale(1)" />
<text x="860" y="300" font-family="Inter, sans-serif" font-size="14" fill="#0f172a" font-weight="500" text-anchor="start">Identity Management</text>
<text x="860" y="318" font-family="Inter, sans-serif" font-size="12" fill="#64748b" font-weight="normal" text-anchor="start">2 mins ago</text>
<rect x="1140" y="80" width="260" height="200" fill="#f1f5f9" stroke="#e2e8f0" stroke-width="1" rx="8" />
<rect x="1160" y="100" width="220" height="120" fill="#ffffff" stroke="#e2e8f0" stroke-width="1" rx="4" opacity="0.8" />
<path d="M3 3h18v18H3V3zm18 0H3v18h18V3z M5 5h5v5H5V5zm7 0h7v5h-7V5zm0 7h7v7h-7v-7zM5 12h5v7H5v-7z" fill="none" stroke="#cbd5e1" stroke-width="2" stroke-linecap="round" stroke-linejoin="round" transform="translate(1258, 150) scale(1)" />
<text x="1140" y="300" font-family="Inter, sans-serif" font-size="14" fill="#0f172a" font-weight="500" text-anchor="start">AWS Infrastructure</text>
<text x="1140" y="318" font-family="Inter, sans-serif" font-size="12" fill="#64748b" font-weight="normal" text-anchor="start">2 mins ago</text>
</svg>