<svg xmlns="http://www.w3.org/2000/svg" viewBox="0 0 1440 900">
  <style>
    text { font-family: -apple-system, BlinkMacSystemFont, 'Segoe UI', 'Inter', sans-serif; }
  </style>
  <!-- Background -->
  <rect x="0" y="0" width="1440" height="900" fill="#1e1e1e"/>
  
  <!-- Activity Bar -->
  <rect x="0" y="0" width="48" height="900" fill="#2d2d2d" stroke="#1e1e1e" stroke-width="1"/>
  <rect x="0" y="16" width="2" height="32" fill="#ffffff"/>
  <path d="M3 7v10a2 2 0 002 2h14a2 2 0 002-2V9a2 2 0 00-2-2h-6l-2-2H5a2 2 0 00-2 2z" fill="none" stroke="#ffffff" stroke-width="2" stroke-linecap="round" stroke-linejoin="round" transform="translate(12, 20) scale(1)"/>
  <path d="M21 21l-6-6m2-5a7 7 0 11-14 0 7 7 0 0114 0z" fill="none" stroke="#858585" stroke-width="2" stroke-linecap="round" stroke-linejoin="round" transform="translate(12, 70) scale(1)"/>
  <path d="M3 3h7v7H3V3zm11 0h7v7h-7V3zm0 11h7v7h-7v-7zM3 14h7v7H3v-7z" fill="none" stroke="#858585" stroke-width="2" stroke-linecap="round" stroke-linejoin="round" transform="translate(12, 120) scale(1)"/>
  <path d="M17 20h5v-2a3 3 0 00-5.356-1.857M17 20H7m10 0v-2c0-.656-.126-1.283-.356-1.857M7 20H2v-2a3 3 0 015.356-1.857M7 20v-2c0-.656.126-1.283.356-1.857m0 0a5.002 5.002 0 019.288 0M15 7a3 3 0 11-6 0 3 3 0 016 0zm6 3a2 2 0 11-4 0 2 2 0 014 0zM7 10a2 2 0 11-4 0 2 2 0 014 0z" fill="none" stroke="#858585" stroke-width="2" stroke-linecap="round" stroke-linejoin="round" transform="translate(12, 170) scale(1)"/>
  <path d="M10.325 4.317c.426-1.756 2.924-1.756 3.35 0a1.724 1.724 0 002.573 1.066c1.543-.94 3.31.826 2.37 2.37a1.724 1.724 0 001.065 2.572c1.756.426 1.756 2.924 0 3.35a1.724 1.724 0 00-1.066 2.573c.94 1.543-.826 3.31-2.37 2.37a1.724 1.724 0 00-2.572 1.065c-.426 1.756-2.924 1.756-3.35 0a1.724 1.724 0 00-2.573-1.066c-1.543.94-3.31-.826-2.37-2.37a1.724 1.724 0 00-1.065-2.572c-1.756-.426-1.756-2.924 0-3.35a1.724 1.724 0 001.066-2.573c-.94-1.543.826-3.31 2.37-2.37.996.608 2.296.07 2.572-1.065z M15 12a3 3 0 11-6 0 3 3 0 016 0z" fill="none" stroke="#858585" stroke-width="2" stroke-linecap="round" stroke-linejoin="round" transform="translate(12, 850) scale(1)"/>
  
  <!-- Sidebar -->
  <rect x="48" y="0" width="260" height="900" fill="#252526" stroke="#1e1e1e" stroke-width="1"/>
  <text x="68" y="30" font-family="Inter, sans-serif" font-size="11" fill="#858585" font-weight="bold" text-anchor="start" letter-spacing="0.1em">EXPLORER</text>
  <path d="M6 9l6 6 6-6" fill="none" stroke="#cccccc" stroke-width="2" stroke-linecap="round" stroke-linejoin="round" transform="translate(58, 50) scale(0.7)"/>
  <text x="74" y="60" font-family="Inter, sans-serif" font-size="12" fill="#cccccc" font-weight="bold" text-anchor="start">ARKHITEKTON-CORE</text>
  
  <!-- Folders -->
  <path d="M6 9l6 6 6-6" fill="none" stroke="#858585" stroke-width="2" stroke-linecap="round" stroke-linejoin="round" transform="translate(68, 80) scale(0.6)"/>
  <path d="M3 7v10a2 2 0 002 2h14a2 2 0 002-2V9a2 2 0 00-2-2h-6l-2-2H5a2 2 0 00-2 2z" fill="none" stroke="#60a5fa" stroke-width="2" stroke-linecap="round" stroke-linejoin="round" transform="translate(86, 80) scale(0.6)"/>
  <text x="108" y="92" font-family="Inter, sans-serif" font-size="13" fill="#cccccc" font-weight="normal" text-anchor="start">models</text>
  
  <path d="M6 9l6 6 6-6" fill="none" stroke="#858585" stroke-width="2" stroke-linecap="round" stroke-linejoin="round" transform="translate(68, 104) scale(0.6)"/>
  <path d="M3 7v10a2 2 0 002 2h14a2 2 0 002-2V9a2 2 0 00-2-2h-6l-2-2H5a2 2 0 00-2 2z" fill="none" stroke="#60a5fa" stroke-width="2" stroke-linecap="round" stroke-linejoin="round" transform="translate(86, 104) scale(0.6)"/>
  <text x="108" y="116" font-family="Inter, sans-serif" font-size="13" fill="#cccccc" font-weight="normal" text-anchor="start">diagrams</text>
  
  <path d="M6 9l6 6 6-6" fill="none" stroke="#858585" stroke-width="2" stroke-linecap="round" stroke-linejoin="round" transform="translate(68, 128) scale(0.6)"/>
  <path d="M3 7v10a2 2 0 002 2h14a2 2 0 002-2V9a2 2 0 00-2-2h-6l-2-2H5a2 2 0 00-2 2z" fill="none" stroke="#60a5fa" stroke-width="2" stroke-linecap="round" stroke-linejoin="round" transform="translate(86, 128) scale(0.6)"/>
  <text x="108" y="140" font-family="Inter, sans-serif" font-size="13" fill="#cccccc" font-weight="normal" text-anchor="start">docs</text>
  
  <path d="M6 9l6 6 6-6" fill="none" stroke="#858585" stroke-width="2" stroke-linecap="round" stroke-linejoin="round" transform="translate(68, 152) scale(0.6)"/>
  <path d="M3 7v10a2 2 0 002 2h14a2 2 0 002-2V9a2 2 0 00-2-2h-6l-2-2H5a2 2 0 00-2 2z" fill="none" stroke="#60a5fa" stroke-width="2" stroke-linecap="round" stroke-linejoin="round" transform="translate(86, 152) scale(0.6)"/>
  <text x="108" y="164" font-family="Inter, sans-serif" font-size="13" fill="#cccccc" font-weight="normal" text-anchor="start">src</text>
  
  <!-- Files -->
  <rect x="48" y="174" width="260" height="24" fill="#37373d"/>
  <path d="M3 3h18v18H3V3zm18 0H3v18h18V3z M5 5h5v5H5V5zm7 0h7v5h-7V5zm0 7h7v7h-7v-7zM5 12h5v7H5v-7z" fill="none" stroke="#dcdcaa" stroke-width="2" stroke-linecap="round" stroke-linejoin="round" transform="translate(86, 180) scale(0.6)"/>
  <text x="108" y="192" font-family="Inter, sans-serif" font-size="13" fill="#ffffff" font-weight="normal" text-anchor="start">payer_platform.arch</text>
  
  <path d="M3 3h18v18H3V3zm18 0H3v18h18V3z M5 5h5v5H5V5zm7 0h7v5h-7V5zm0 7h7v7h-7v-7zM5 12h5v7H5v-7z" fill="none" stroke="#dcdcaa" stroke-width="2" stroke-linecap="round" stroke-linejoin="round" transform="translate(86, 204) scale(0.6)"/>
  <text x="108" y="216" font-family="Inter, sans-serif" font-size="13" fill="#cccccc" font-weight="normal" text-anchor="start">identity_mgmt.arch</text>
  
  <path d="M3 3h18v18H3V3zm18 0H3v18h18V3z M5 5h5v5H5V5zm7 0h7v5h-7V5zm0 7h7v7h-7v-7zM5 12h5v7H5v-7z" fill="none" stroke="#dcdcaa" stroke-width="2" stroke-linecap="round" stroke-linejoin="round" transform="translate(86, 228) scale(0.6)"/>
  <text x="108" y="240" font-family="Inter, sans-serif" font-size="13" fill="#cccccc" font-weight="normal" text-anchor="start">claims.arch</text>
  
  <!-- Tabs Bar -->
  <rect x="308" y="0" width="1132" height="35" fill="#252526"/>
  <rect x="308" y="0" width="180" height="35" fill="#1e1e1e"/>
  <rect x="308" y="0" width="180" height="2" fill="#007acc"/>
  <path d="M3 3h18v18H3V3zm18 0H3v18h18V3z M5 5h5v5H5V5zm7 0h7v5h-7V5zm0 7h7v7h-7v-7zM5 12h5v7H5v-7z" fill="none" stroke="#dcdcaa" stroke-width="2" stroke-linecap="round" stroke-linejoin="round" transform="translate(318, 10) scale(0.6)"/>
  <text x="340" y="22" font-family="Inter, sans-serif" font-size="13" fill="#ffffff" font-weight="normal" text-anchor="start">payer_platform.arch</text>
  <text x="468" y="22" font-family="Inter, sans-serif" font-size="12" fill="#858585" font-weight="normal" text-anchor="start">×</text>
  
  <rect x="488" y="0" width="180" height="35" fill="#2d2d2d"/>
  <path d="M3 3h18v18H3V3zm18 0H3v18h18V3z M5 5h5v5H5V5zm7 0h7v5h-7V5zm0 7h7v7h-7v-7zM5 12h5v7H5v-7z" fill="none" stroke="#dcdcaa" stroke-width="2" stroke-linecap="round" stroke-linejoin="round" transform="translate(498, 10) scale(0.6)"/>
  <text x="520" y="22" font-family="Inter, sans-serif" font-size="13" fill="#858585" font-weight="normal" text-anchor="start">identity_mgmt.arch</text>
  
  <!-- Breadcrumbs -->
  <rect x="308" y="35" width="1132" height="26" fill="#1e1e1e"/>
  <text x="324" y="52" font-family="Inter, sans-serif" font-size="12" fill="#858585" font-weight="normal" text-anchor="start">arkhitekton-core › diagrams › payer_platform.arch</text>
  
  <!-- Canvas Area with Grid -->
  <rect x="308" y="61" width="1132" height="700" fill="#1e1e1e"/>
  <!-- Grid pattern (simplified) -->
  <circle cx="358" cy="140" r="1" fill="#858585" opacity="0.2"/>
  <circle cx="398" cy="140" r="1" fill="#858585" opacity="0.2"/>
  <circle cx="438" cy="140" r="1" fill="#858585" opacity="0.2"/>
  <circle cx="478" cy="140" r="1" fill="#858585" opacity="0.2"/>
  <circle cx="358" cy="180" r="1" fill="#858585" opacity="0.2"/>
  <circle cx="398" cy="180" r="1" fill="#858585" opacity="0.2"/>
  <circle cx="438" cy="180" r="1" fill="#858585" opacity="0.2"/>
  <circle cx="478" cy="180" r="1" fill="#858585" opacity="0.2"/>
  
  <!-- Code Preview -->
  <text x="348" y="200" font-family="Inter, sans-serif" font-size="14" fill="#c586c0" font-weight="normal" text-anchor="start">service PayerPortal {</text>
  <text x="348" y="224" font-family="Inter, sans-serif" font-size="14" fill="#9cdcfe" font-weight="normal" text-anchor="start">  type: 'frontend'</text>
  <text x="348" y="248" font-family="Inter, sans-serif" font-size="14" fill="#ce9178" font-weight="normal" text-anchor="start">  connects_to: [</text>
  <text x="348" y="272" font-family="Inter, sans-serif" font-size="14" fill="#4ec9b0" font-weight="normal" text-anchor="start">    IdentityService,</text>
  <text x="348" y="296" font-family="Inter, sans-serif" font-size="14" fill="#4ec9b0" font-weight="normal" text-anchor="start">    ClaimsDB</text>
  <text x="348" y="320" font-family="Inter, sans-serif" font-size="14" fill="#ce9178" font-weight="normal" text-anchor="start">  ]</text>
  <text x="348" y="344" font-family="Inter, sans-serif" font-size="14" fill="#c586c0" font-weight="normal" text-anchor="start">}</text>
  
  <!-- Bottom Panel -->
  <rect x="308" y="761" width="1132" height="128" fill="#252526" stroke="#1e1e1e" stroke-width="1"/>
  <text x="328" y="785" font-family="Inter, sans-serif" font-size="12" fill="#858585" font-weight="bold" text-anchor="start">PROBLEMS  OUTPUT  TERMINAL</text>
  <rect x="458" y="791" width="60" height="2" fill="#ffffff"/>
  <text x="328" y="820" font-family="Inter, sans-serif" font-size="13" fill="#cccccc" font-weight="normal" text-anchor="start">[Info] Arkhitekton Language Server initialized</text>
  <text x="328" y="840" font-family="Inter, sans-serif" font-size="13" fill="#cccccc" font-weight="normal" text-anchor="start">[Info] Loaded 6 models in 240ms</text>
  <text x="328" y="860" font-family="Inter, sans-serif" font-size="13" fill="#dcdcaa" font-weight="normal" text-anchor="start">[Warn] Deprecated property 'legacy_mode' in identity_mgmt.arch:12</text>
  
  <!-- Status Bar -->
  <rect x="0" y="874" width="1440" height="26" fill="#007acc"/>
  <text x="30" y="891" font-family="Inter, sans-serif" font-size="12" fill="#ffffff" font-weight="normal" text-anchor="start">⊗ 0</text>
  <text x="80" y="891" font-family="Inter, sans-serif" font-size="12" fill="#ffffff" font-weight="normal" text-anchor="start">⚠ 1</text>
  <text x="1340" y="891" font-family="Inter, sans-serif" font-size="12" fill="#ffffff" font-weight="normal" text-anchor="start">Ln 12, Col 43</text>
  <text x="1400" y="891" font-family="Inter, sans-serif" font-size="12" fill="#ffffff" font-weight="normal" text-anchor="start">UTF-8</text>
  <text x="1370" y="891" font-family="Inter, sans-serif" font-size="12" fill="#ffffff" font-weight="normal" text-anchor="start">ArchScript</text>
</svg>