<svg xmlns="http://www.w3.org/2000/svg" viewBox="0 0 1440 900">
  <defs>
    <linearGradient id="logoGrad2" x1="0%" y1="0%" x2="100%" y2="100%">
      <stop offset="0%" style="stop-color:#6366f1;stop-opacity:1" />
      <stop offset="100%" style="stop-color:#a855f7;stop-opacity:1" />
    </linearGradient>
  </defs>
  <style>
    text { font-family: -apple-system, BlinkMacSystemFont, 'Segoe UI', 'Inter', sans-serif; }
  </style>
  <!-- Background -->
  <rect x="0" y="0" width="1440" height="900" fill="#f9f9fa"/>
  
  <!-- Hero Header -->
  <rect x="0" y="0" width="1440" height="320" fill="#ffffff" stroke="#f1f5f9" stroke-width="1"/>
  
  <!-- Header Top Bar -->
  <rect x="100" y="24" width="32" height="32" fill="url(#logoGrad2)" rx="8"/>
  <text x="140" y="44" font-family="Inter, sans-serif" font-size="20" fill="#1e293b" font-weight="bold" text-anchor="start">Arkhitekton</text>
  <circle cx="1350" cy="40" r="18" fill="#ffffff" stroke="#e2e8f0" stroke-width="2"/>
  <text x="1350" y="45" font-family="Inter, sans-serif" font-size="12" fill="#475569" font-weight="500" text-anchor="middle">AJ</text>
  
  <!-- Hero Title -->
  <text x="720" y="200" font-family="Inter, sans-serif" font-size="40" fill="#1e293b" font-weight="600" text-anchor="middle" letter-spacing="-0.02em">What are you building today?</text>
  
  <!-- Search Bar -->
  <rect x="420" y="240" width="600" height="56" fill="#ffffff" rx="28" stroke="#f1f5f9" stroke-width="1"/>
  <path d="M21 21l-6-6m2-5a7 7 0 11-14 0 7 7 0 0114 0z" fill="none" stroke="#94a3b8" stroke-width="2" stroke-linecap="round" stroke-linejoin="round" transform="translate(444, 260) scale(1)"/>
  <text x="484" y="275" font-family="Inter, sans-serif" font-size="16" fill="#94a3b8" font-weight="normal" text-anchor="start">Search diagrams, objects, or people...</text>
  <rect x="980" y="252" width="1" height="32" fill="#e2e8f0"/>
  <text x="1000" y="275" font-family="Inter, sans-serif" font-size="10" fill="#94a3b8" font-weight="500" text-anchor="start" letter-spacing="0.1em">CMD</text>
  <text x="1050" y="275" font-family="Inter, sans-serif" font-size="10" fill="#94a3b8" font-weight="500" text-anchor="start" letter-spacing="0.1em">K</text>
  
  <!-- Main Content -->
  <text x="100" y="400" font-family="Inter, sans-serif" font-size="20" fill="#1e293b" font-weight="600" text-anchor="start">Your Work</text>
  
  <!-- View Toggle -->
  <rect x="1200" y="380" width="120" height="32" fill="#ffffff" rx="8" stroke="#e2e8f0" stroke-width="1"/>
  <rect x="1204" y="384" width="56" height="24" fill="#f1f5f9" rx="6"/>
  <path d="M3 3h7v7H3V3zm11 0h7v7h-7V3zm0 11h7v7h-7v-7zM3 14h7v7H3v-7z" fill="none" stroke="#475569" stroke-width="2" stroke-linecap="round" stroke-linejoin="round" transform="translate(1210, 390) scale(0.6)"/>
  <path d="M8 6h8M8 12h8M4 6h.01M4 12h.01" fill="none" stroke="#94a3b8" stroke-width="2" stroke-linecap="round" stroke-linejoin="round" transform="translate(1270, 390) scale(0.6)"/>
  
  <!-- Diagram Cards Grid -->
  <!-- Create New Card -->
  <rect x="100" y="440" width="300" height="200" fill="none" stroke="#cbd5e1" stroke-width="2" stroke-dasharray="8,4" rx="16"/>
  <rect x="220" y="520" width="64" height="64" fill="#ffffff" rx="16" stroke="#e2e8f0" stroke-width="1"/>
  <path d="M12 4v16m8-8H4" fill="none" stroke="#6366f1" stroke-width="2.5" stroke-linecap="round" stroke-linejoin="round" transform="translate(252, 552) scale(1.5)"/>
  <text x="250" y="620" font-family="Inter, sans-serif" font-size="16" fill="#475569" font-weight="500" text-anchor="middle">Create new diagram</text>
  
  <!-- Card 1 -->
  <rect x="440" y="440" width="300" height="200" fill="#ffffff" stroke="#f1f5f9" stroke-width="1" rx="16"/>
  <rect x="440" y="440" width="300" height="120" fill="#f8fafc" rx="16"/>
  <rect x="470" y="470" width="240" height="60" fill="#ffffff" rx="4" opacity="0.8"/>
  <path d="M3 3h18v18H3V3zm18 0H3v18h18V3z M5 5h5v5H5V5zm7 0h7v5h-7V5zm0 7h7v7h-7v-7zM5 12h5v7H5v-7z" fill="none" stroke="#cbd5e1" stroke-width="2" stroke-linecap="round" stroke-linejoin="round" transform="translate(580, 500) scale(1.2)"/>
  <text x="460" y="590" font-family="Inter, sans-serif" font-size="16" fill="#0f172a" font-weight="600" text-anchor="start">Payer Platform</text>
  <circle cx="466" cy="615" r="4" fill="#60a5fa"/>
  <text x="478" y="619" font-family="Inter, sans-serif" font-size="12" fill="#64748b" font-weight="normal" text-anchor="start">Updated recently</text>
  
  <!-- Card 2 -->
  <rect x="780" y="440" width="300" height="200" fill="#ffffff" stroke="#f1f5f9" stroke-width="1" rx="16"/>
  <rect x="780" y="440" width="300" height="120" fill="#f8fafc" rx="16"/>
  <rect x="810" y="470" width="240" height="60" fill="#ffffff" rx="4" opacity="0.8"/>
  <path d="M3 3h18v18H3V3zm18 0H3v18h18V3z M5 5h5v5H5V5zm7 0h7v5h-7V5zm0 7h7v7h-7v-7zM5 12h5v7H5v-7z" fill="none" stroke="#cbd5e1" stroke-width="2" stroke-linecap="round" stroke-linejoin="round" transform="translate(920, 500) scale(1.2)"/>
  <text x="800" y="590" font-family="Inter, sans-serif" font-size="16" fill="#0f172a" font-weight="600" text-anchor="start">Claims Processing</text>
  <circle cx="806" cy="615" r="4" fill="#6366f1"/>
  <text x="818" y="619" font-family="Inter, sans-serif" font-size="12" fill="#64748b" font-weight="normal" text-anchor="start">Updated recently</text>
  
  <!-- Card 3 -->
  <rect x="1120" y="440" width="300" height="200" fill="#ffffff" stroke="#f1f5f9" stroke-width="1" rx="16"/>
  <rect x="1120" y="440" width="300" height="120" fill="#f8fafc" rx="16"/>
  <rect x="1150" y="470" width="240" height="60" fill="#ffffff" rx="4" opacity="0.8"/>
  <path d="M3 3h18v18H3V3zm18 0H3v18h18V3z M5 5h5v5H5V5zm7 0h7v5h-7V5zm0 7h7v7h-7v-7zM5 12h5v7H5v-7z" fill="none" stroke="#cbd5e1" stroke-width="2" stroke-linecap="round" stroke-linejoin="round" transform="translate(1260, 500) scale(1.2)"/>
  <text x="1140" y="590" font-family="Inter, sans-serif" font-size="16" fill="#0f172a" font-weight="600" text-anchor="start">Identity Service</text>
  <circle cx="1146" cy="615" r="4" fill="#f97316"/>
  <text x="1158" y="619" font-family="Inter, sans-serif" font-size="12" fill="#64748b" font-weight="normal" text-anchor="start">Updated recently</text>
  
  <!-- Row 2 - Card 4 -->
  <rect x="100" y="680" width="300" height="200" fill="#ffffff" stroke="#f1f5f9" stroke-width="1" rx="16"/>
  <rect x="100" y="680" width="300" height="120" fill="#f8fafc" rx="16"/>
  <rect x="130" y="710" width="240" height="60" fill="#ffffff" rx="4" opacity="0.8"/>
  <path d="M3 3h18v18H3V3zm18 0H3v18h18V3z M5 5h5v5H5V5zm7 0h7v5h-7V5zm0 7h7v7h-7v-7zM5 12h5v7H5v-7z" fill="none" stroke="#cbd5e1" stroke-width="2" stroke-linecap="round" stroke-linejoin="round" transform="translate(240, 740) scale(1.2)"/>
  <text x="120" y="830" font-family="Inter, sans-serif" font-size="16" fill="#0f172a" font-weight="600" text-anchor="start">AWS Infrastructure</text>
  <circle cx="126" cy="855" r="4" fill="#94a3b8"/>
  <text x="138" y="859" font-family="Inter, sans-serif" font-size="12" fill="#64748b" font-weight="normal" text-anchor="start">Updated recently</text>
  
  <!-- Row 2 - Card 5 -->
  <rect x="440" y="680" width="300" height="200" fill="#ffffff" stroke="#f1f5f9" stroke-width="1" rx="16"/>
  <rect x="440" y="680" width="300" height="120" fill="#f8fafc" rx="16"/>
  <rect x="470" y="710" width="240" height="60" fill="#ffffff" rx="4" opacity="0.8"/>
  <path d="M3 3h18v18H3V3zm18 0H3v18h18V3z M5 5h5v5H5V5zm7 0h7v5h-7V5zm0 7h7v7h-7v-7zM5 12h5v7H5v-7z" fill="none" stroke="#cbd5e1" stroke-width="2" stroke-linecap="round" stroke-linejoin="round" transform="translate(580, 740) scale(1.2)"/>
  <text x="460" y="830" font-family="Inter, sans-serif" font-size="16" fill="#0f172a" font-weight="600" text-anchor="start">Member Portal UX</text>
  <circle cx="466" cy="855" r="4" fill="#94a3b8"/>
  <text x="478" y="859" font-family="Inter, sans-serif" font-size="12" fill="#64748b" font-weight="normal" text-anchor="start">Updated recently</text>
  
  <!-- Row 2 - Card 6 -->
  <rect x="780" y="680" width="300" height="200" fill="#ffffff" stroke="#f1f5f9" stroke-width="1" rx="16"/>
  <rect x="780" y="680" width="300" height="120" fill="#f8fafc" rx="16"/>
  <rect x="810" y="710" width="240" height="60" fill="#ffffff" rx="4" opacity="0.8"/>
  <path d="M3 3h18v18H3V3zm18 0H3v18h18V3z M5 5h5v5H5V5zm7 0h7v5h-7V5zm0 7h7v7h-7v-7zM5 12h5v7H5v-7z" fill="none" stroke="#cbd5e1" stroke-width="2" stroke-linecap="round" stroke-linejoin="round" transform="translate(920, 740) scale(1.2)"/>
  <text x="800" y="830" font-family="Inter, sans-serif" font-size="16" fill="#0f172a" font-weight="600" text-anchor="start">Legacy System Migration</text>
  <circle cx="806" cy="855" r="4" fill="#94a3b8"/>
  <text x="818" y="859" font-family="Inter, sans-serif" font-size="12" fill="#64748b" font-weight="normal" text-anchor="start">Updated recently</text>
</svg>